<svg width="198" height="62" viewBox="0 0 198 62" fill="none" xmlns="http://www.w3.org/2000/svg">
<g id="Think-different-Academy_LOGO_oficialni_1 1" clip-path="url(#clip0_98_4)">
<g id="Elementy">
<g id="Group">
<g id="Group_2">
<g id="Group_3">
<path id="Vector" d="M76.6842 11.7581C77.2881 11.7581 77.5694 12.4041 77.5694 13.0088C77.5694 13.6754 77.2469 14.2802 76.6842 14.2802H73.5345V26.6499C73.5345 27.2341 72.8208 27.5364 72.1346 27.5364C71.4484 27.5364 70.7347 27.2341 70.7347 26.6499V14.2802H67.5644C67.0017 14.2802 66.6792 13.696 66.6792 13.0088C66.6792 12.4041 66.9605 11.7581 67.5644 11.7581H76.6842Z" fill="#1D1D1B"/>
<path id="Vector_2" d="M81.6937 26.6568C81.6937 27.0898 81.0487 27.5433 80.2938 27.5433C79.4772 27.5433 78.9146 27.0898 78.9146 26.6568V12.1704C78.9146 11.655 79.4772 11.3046 80.2938 11.3046C81.0487 11.3046 81.6937 11.6482 81.6937 12.1704V18.802C82.0849 17.9567 83.0524 17.1596 84.4111 17.1596C86.3943 17.1596 88.1167 19.1456 88.1167 21.544V26.6637C88.1167 27.2478 87.403 27.5502 86.7168 27.5502C86.0718 27.5502 85.3375 27.2478 85.3375 26.6637V21.544C85.3375 20.575 84.4729 19.5992 83.4641 19.5992C82.5789 19.5992 81.6937 20.3345 81.6937 21.544V26.6637V26.6568Z" fill="#1D1D1B"/>
<path id="Vector_3" d="M93.078 13.6342C93.078 14.3489 92.4124 14.9949 91.5683 14.9949C90.7243 14.9949 90.0381 14.3489 90.0381 13.6342C90.0381 12.9195 90.7037 12.2736 91.5683 12.2736C92.433 12.2736 93.078 12.8989 93.078 13.6342ZM92.9682 18.1492V26.6568C92.9682 27.0898 92.3438 27.5433 91.5683 27.5433C90.7929 27.5433 90.189 27.0898 90.189 26.6568V18.1492C90.189 17.6338 90.7723 17.2833 91.5683 17.2833C92.3643 17.2833 92.9682 17.6269 92.9682 18.1492Z" fill="#1D1D1B"/>
<path id="Vector_4" d="M97.9086 26.6568C97.9086 27.0898 97.2635 27.5433 96.5087 27.5433C95.6921 27.5433 95.1294 27.0898 95.1294 26.6568V18.1492C95.1294 17.6338 95.6921 17.2833 96.5087 17.2833C97.1743 17.2833 97.737 17.6269 97.737 18.1492V18.7951C98.1487 17.9499 99.178 17.1527 100.626 17.1527C102.609 17.1527 104.332 19.1387 104.332 21.5371V26.6568C104.332 27.2409 103.618 27.5433 102.932 27.5433C102.287 27.5433 101.552 27.2409 101.552 26.6568V21.5371C101.552 20.5681 100.708 19.5923 99.679 19.5923C98.7938 19.5923 97.9086 20.3276 97.9086 21.5371V26.6568Z" fill="#1D1D1B"/>
<path id="Vector_5" d="M112.395 21.3447L115.565 25.8803C115.675 26.0315 115.716 26.1827 115.716 26.3339C115.716 26.9798 114.81 27.7151 114.145 27.7151C113.863 27.7151 113.63 27.5846 113.452 27.3509L110.542 23.0559L109.204 24.286V26.6637C109.204 27.0967 108.559 27.5502 107.784 27.5502C107.008 27.5502 106.425 27.0967 106.425 26.6637V12.1773C106.425 11.6619 106.988 11.3115 107.784 11.3115C108.58 11.3115 109.204 11.6551 109.204 12.1773V21.221L113.259 17.4001C113.41 17.2696 113.603 17.1871 113.822 17.1871C114.426 17.1871 115.181 17.9018 115.181 18.5272C115.181 18.7196 115.092 18.8914 114.941 19.0426L112.395 21.3516V21.3447Z" fill="#1D1D1B"/>
<path id="Vector_6" d="M130.36 12.1636V26.65C130.36 27.0829 129.776 27.5365 128.98 27.5365C128.287 27.5365 127.731 27.0829 127.731 26.65V26.0246C127.299 26.9111 126.112 27.7289 124.733 27.7289C122.729 27.7289 120.958 25.6123 120.958 23.3032V21.5302C120.958 19.1319 122.681 17.1459 124.794 17.1459C126.133 17.1459 127.1 17.943 127.574 18.7883V12.1567C127.574 11.6413 128.198 11.2908 128.973 11.2908C129.749 11.2908 130.353 11.6344 130.353 12.1567L130.36 12.1636ZM123.738 23.3101C123.738 24.3066 124.602 25.2962 125.611 25.2962C126.709 25.2962 127.574 24.1485 127.574 23.7018V21.544C127.574 20.3345 126.558 19.5992 125.632 19.5992C124.575 19.5992 123.738 20.5682 123.738 21.544V23.317V23.3101Z" fill="#1D1D1B"/>
<path id="Vector_7" d="M135.424 13.6342C135.424 14.3489 134.759 14.9949 133.915 14.9949C133.07 14.9949 132.384 14.3489 132.384 13.6342C132.384 12.9195 133.05 12.2736 133.915 12.2736C134.779 12.2736 135.424 12.8989 135.424 13.6342ZM135.314 18.1492V26.6568C135.314 27.0898 134.69 27.5433 133.915 27.5433C133.139 27.5433 132.535 27.0898 132.535 26.6568V18.1492C132.535 17.6338 133.119 17.2833 133.915 17.2833C134.711 17.2833 135.314 17.6269 135.314 18.1492Z" fill="#1D1D1B"/>
<path id="Vector_8" d="M140.276 17.2833H142.904C143.357 17.2833 143.618 17.7987 143.618 18.3004C143.618 18.802 143.357 19.3174 142.904 19.3174H140.276V26.6774C140.276 27.1928 139.61 27.5433 138.855 27.5433C138.1 27.5433 137.497 27.1997 137.497 26.6774V15.5378C137.497 13.1188 139.219 11.3046 141.291 11.3046H142.561C143.275 11.3046 143.618 11.8887 143.618 12.4728C143.618 13.0569 143.275 13.6617 142.561 13.6617H141.868C140.941 13.6617 140.276 14.2664 140.276 15.2354V17.2833Z" fill="#1D1D1B"/>
<path id="Vector_9" d="M147.611 17.2833H150.239C150.692 17.2833 150.953 17.7987 150.953 18.3004C150.953 18.802 150.692 19.3174 150.239 19.3174H147.611V26.6774C147.611 27.1928 146.946 27.5433 146.191 27.5433C145.436 27.5433 144.832 27.1997 144.832 26.6774V15.5378C144.832 13.1188 146.554 11.3046 148.627 11.3046H149.896C150.61 11.3046 150.953 11.8887 150.953 12.4728C150.953 13.0569 150.61 13.6617 149.896 13.6617H149.203C148.277 13.6617 147.611 14.2664 147.611 15.2354V17.2833Z" fill="#1D1D1B"/>
<path id="Vector_10" d="M160.697 21.2141C160.697 23.049 159.661 23.1383 158.693 23.1383H154.315V23.4613C154.315 24.712 155.331 25.5366 156.841 25.5366C158.261 25.5366 158.844 24.7189 159.489 24.7189C160.134 24.7189 160.546 25.516 160.546 25.949C160.546 26.6843 159.057 27.7426 156.751 27.7426C153.691 27.7426 151.536 25.9696 151.536 23.317V21.4821C151.536 19.1525 153.629 17.1664 156.257 17.1664C158.632 17.1664 160.697 18.8295 160.697 21.2278V21.2141ZM157.465 21.4959C157.918 21.4959 158.089 21.3859 158.089 20.9117C158.089 19.8947 157.225 19.2075 156.189 19.2075C155.221 19.2075 154.315 19.8534 154.315 20.8911V21.4959H157.465Z" fill="#1D1D1B"/>
<path id="Vector_11" d="M167.621 19.5923C166.372 19.5923 165.144 20.8224 165.144 22.7878V26.6499C165.144 27.0829 164.499 27.5364 163.723 27.5364C162.948 27.5364 162.365 27.0829 162.365 26.6499V18.1423C162.365 17.6269 162.927 17.2764 163.723 17.2764C164.417 17.2764 164.972 17.62 164.972 18.1423V19.0288C165.405 18.1011 166.441 17.1527 167.621 17.1527H168.287C168.801 17.1527 169.302 17.7162 169.302 18.3622C169.302 19.0082 168.808 19.5923 168.287 19.5923H167.621Z" fill="#1D1D1B"/>
<path id="Vector_12" d="M179.047 21.2141C179.047 23.049 178.011 23.1383 177.043 23.1383H172.665V23.4613C172.665 24.712 173.68 25.5366 175.19 25.5366C176.611 25.5366 177.194 24.7189 177.839 24.7189C178.484 24.7189 178.896 25.516 178.896 25.949C178.896 26.6843 177.407 27.7426 175.101 27.7426C172.04 27.7426 169.886 25.9696 169.886 23.317V21.4821C169.886 19.1525 171.979 17.1664 174.607 17.1664C176.981 17.1664 179.047 18.8295 179.047 21.2278V21.2141ZM175.815 21.4959C176.268 21.4959 176.439 21.3859 176.439 20.9117C176.439 19.8947 175.574 19.2075 174.545 19.2075C173.578 19.2075 172.672 19.8534 172.672 20.8911V21.4959H175.821H175.815Z" fill="#1D1D1B"/>
<path id="Vector_13" d="M183.486 26.6568C183.486 27.0898 182.841 27.5433 182.086 27.5433C181.27 27.5433 180.707 27.0898 180.707 26.6568V18.1492C180.707 17.6338 181.27 17.2833 182.086 17.2833C182.752 17.2833 183.315 17.6269 183.315 18.1492V18.7951C183.726 17.9499 184.756 17.1527 186.204 17.1527C188.187 17.1527 189.909 19.1387 189.909 21.5371V26.6568C189.909 27.2409 189.195 27.5433 188.509 27.5433C187.864 27.5433 187.13 27.2409 187.13 26.6568V21.5371C187.13 20.5681 186.286 19.5923 185.257 19.5923C184.371 19.5923 183.486 20.3276 183.486 21.5371V26.6568Z" fill="#1D1D1B"/>
<path id="Vector_14" d="M194.747 24.0455C194.747 24.8907 195.049 25.1931 195.955 25.1931H196.799C197.595 25.1931 197.986 25.7772 197.986 26.3614C197.986 26.9455 197.595 27.5502 196.799 27.5502H195.955C193.368 27.5502 191.968 26.4919 191.968 24.0523V13.5793C191.968 13.0639 192.703 12.7134 193.348 12.7134C194.061 12.7134 194.747 13.057 194.747 13.5793V17.2902H197.293C197.746 17.2902 198.007 17.8056 198.007 18.3073C198.007 18.8089 197.746 19.3243 197.293 19.3243H194.747V24.0523V24.0455Z" fill="#1D1D1B"/>
</g>
<g id="Group_4">
<path id="Vector_15" d="M69.0605 39.7894C69.0605 39.7894 69.0743 39.7276 69.0811 39.6863L71.1123 33.0616C71.2084 32.7455 71.5995 32.6012 71.9838 32.6012C72.3681 32.6012 72.773 32.7455 72.869 33.0616L74.9002 39.6863C74.9139 39.7276 74.9208 39.7619 74.9208 39.7894C74.9208 40.1193 74.4267 40.3598 74.0562 40.3598C73.8229 40.3598 73.6445 40.2842 73.5964 40.0849L73.1984 38.683H70.7898L70.3918 40.0849C70.3369 40.2842 70.1585 40.3598 69.932 40.3598C69.5615 40.3598 69.0674 40.1261 69.0674 39.7894H69.0605ZM72.9033 37.611L71.9907 34.3742L71.078 37.611H72.9102H72.9033Z" fill="#1D1D1B"/>
<path id="Vector_16" d="M76.1695 38.2981V37.4529C76.1695 36.2434 76.8557 35.295 78.4408 35.295C79.429 35.295 80.1221 35.7074 80.1221 36.1197C80.1221 36.374 79.9093 36.7863 79.5868 36.7863C79.3535 36.7863 79.1682 36.4908 78.5438 36.4908C77.8301 36.4908 77.5213 36.8481 77.5213 37.4598V38.305C77.5213 38.9166 77.8233 39.274 78.5506 39.274C79.182 39.274 79.3398 38.9579 79.6006 38.9579C79.9711 38.9579 80.177 39.3358 80.177 39.6038C80.177 40.023 79.429 40.4697 78.4408 40.4697C76.8557 40.4697 76.1558 39.542 76.1558 38.3119L76.1695 38.2981Z" fill="#1D1D1B"/>
<path id="Vector_17" d="M85.6392 37.3498V39.9337C85.6392 40.1742 85.3579 40.3666 84.9736 40.3666C84.6236 40.3666 84.3629 40.1742 84.3629 39.9337V39.6313C83.9855 40.0643 83.4914 40.4628 82.764 40.4628C82.0366 40.4628 81.3984 40.023 81.3984 39.0609C81.3984 37.8514 82.4003 37.5147 83.8482 37.5147H84.2805V37.3773C84.2805 36.9237 84.0472 36.4083 83.3541 36.4083C82.5444 36.4083 82.4072 36.7382 82.1533 36.7382C81.8513 36.7382 81.6935 36.3671 81.6935 36.0647C81.6935 35.6318 82.6268 35.3088 83.3747 35.3088C85.0148 35.3088 85.6392 36.2984 85.6392 37.3635V37.3498ZM84.2805 38.2088H84.1227C83.4159 38.2088 82.7571 38.2844 82.7571 38.8754C82.7571 39.2671 82.9973 39.4458 83.313 39.4458C83.7453 39.4458 84.2805 38.951 84.2805 38.4356V38.2157V38.2088Z" fill="#1D1D1B"/>
<path id="Vector_18" d="M91.8427 32.8623V39.9337C91.8427 40.1468 91.5613 40.3667 91.1702 40.3667C90.834 40.3667 90.5595 40.1468 90.5595 39.9337V39.6313C90.3467 40.0643 89.7703 40.4629 89.0978 40.4629C88.1166 40.4629 87.2588 39.4321 87.2588 38.305V37.4391C87.2588 36.2709 88.1028 35.3019 89.1321 35.3019C89.7841 35.3019 90.2575 35.6936 90.4908 36.106V32.8692C90.4908 32.6149 90.7928 32.45 91.1771 32.45C91.5613 32.45 91.8496 32.6218 91.8496 32.8692L91.8427 32.8623ZM88.6175 38.2982C88.6175 38.7861 89.0361 39.2671 89.5302 39.2671C90.0654 39.2671 90.4908 38.7105 90.4908 38.4906V37.4391C90.4908 36.8481 89.9968 36.4908 89.5439 36.4908C89.0292 36.4908 88.6175 36.965 88.6175 37.4391V38.305V38.2982Z" fill="#1D1D1B"/>
<path id="Vector_19" d="M97.9775 37.2742C97.9775 38.1676 97.4697 38.2088 96.9963 38.2088H94.8621V38.3669C94.8621 38.9785 95.3562 39.3771 96.0904 39.3771C96.7835 39.3771 97.0717 38.9785 97.3874 38.9785C97.703 38.9785 97.902 39.3702 97.902 39.5764C97.902 39.9337 97.1747 40.4491 96.0493 40.4491C94.5533 40.4491 93.5034 39.5833 93.5034 38.2913V37.3979C93.5034 36.2572 94.5259 35.2882 95.8091 35.2882C96.9688 35.2882 97.9775 36.0991 97.9775 37.2674V37.2742ZM96.3992 37.4117C96.6188 37.4117 96.7012 37.3567 96.7012 37.1299C96.7012 36.6351 96.2826 36.2984 95.7748 36.2984C95.3013 36.2984 94.8621 36.6145 94.8621 37.1231V37.4186H96.3992V37.4117Z" fill="#1D1D1B"/>
<path id="Vector_20" d="M102.623 37.4323C102.623 36.8413 102.205 36.484 101.759 36.484C101.347 36.484 100.935 36.8138 100.935 37.4323V39.9269C100.935 40.1399 100.62 40.3598 100.249 40.3598C99.8511 40.3598 99.5767 40.1399 99.5767 39.9269V35.7761C99.5767 35.5219 99.8511 35.3569 100.249 35.3569C100.579 35.3569 100.846 35.5287 100.846 35.7761V36.0922C101.079 35.6799 101.539 35.2882 102.232 35.2882C102.829 35.2882 103.323 35.7212 103.55 36.3396C103.92 35.6249 104.531 35.2882 105.135 35.2882C106.096 35.2882 107.008 36.0579 107.008 37.4254V39.92C107.008 40.133 106.693 40.3529 106.322 40.3529C105.952 40.3529 105.65 40.133 105.65 39.92V37.4254C105.65 36.7932 105.217 36.4702 104.799 36.4702C104.38 36.4702 103.968 36.8069 103.968 37.4186V39.9337C103.968 40.2292 103.618 40.3529 103.282 40.3529C102.967 40.3529 102.61 40.2292 102.61 39.9337V37.4254L102.623 37.4323Z" fill="#1D1D1B"/>
<path id="Vector_21" d="M108.326 36.1128C108.305 36.0579 108.285 35.996 108.285 35.9342C108.285 35.5768 108.84 35.2813 109.19 35.2813C109.369 35.2813 109.527 35.3432 109.582 35.515L110.844 38.6624L111.867 35.515C111.922 35.3432 112.079 35.2813 112.224 35.2813C112.553 35.2813 113.15 35.5768 113.15 35.9548C113.15 35.996 113.136 36.0579 113.116 36.1128L111.578 40.0437C111.084 41.3081 110.789 42.6894 108.909 42.6894C108.559 42.6894 108.292 42.6138 108.292 42.1122C108.292 41.8098 108.388 41.5418 108.642 41.5418C109.101 41.5418 110.076 41.26 110.144 39.9956L108.333 36.1197L108.326 36.1128Z" fill="#1D1D1B"/>
</g>
</g>
<g id="Group_5">
<g id="Group_6">
<path id="Vector_22" d="M30.5776 23.5781C29.7336 23.5781 29.0474 24.2653 29.0474 25.1106V29.4125C29.0474 30.2578 29.7336 30.945 30.5776 30.945C31.4217 30.945 32.1079 30.2578 32.1079 29.4125V25.1106C32.1079 24.2653 31.4217 23.5781 30.5776 23.5781Z" fill="#0070BB"/>
<path id="Vector_23" d="M25.1015 23.5781C24.2575 23.5781 23.5713 24.2653 23.5713 25.1106V29.4125C23.5713 30.2578 24.2575 30.945 25.1015 30.945C25.9456 30.945 26.6318 30.2578 26.6318 29.4125V25.1106C26.6318 24.2653 25.9456 23.5781 25.1015 23.5781Z" fill="#0070BB"/>
<path id="Vector_24" d="M28.2857 0L0 8.35646V45.6444L28.2857 61.9931L56.5714 45.6444V8.35646L28.2857 0ZM32.3275 13.0432L32.7804 11.8612C33.0823 11.0709 33.9744 10.6792 34.7567 10.9816C35.5459 11.284 35.9439 12.1705 35.6351 12.9608L35.1822 14.1428C34.9488 14.7544 34.3724 15.1255 33.7548 15.1255C33.5696 15.1255 33.3843 15.0911 33.2059 15.0224C32.4167 14.72 32.0187 13.8335 32.3275 13.0432ZM20.9226 11.3527C21.6981 11.0022 22.597 11.3527 22.9401 12.1292L23.4548 13.2838C23.7979 14.0534 23.4548 14.9605 22.6794 15.3041C22.4804 15.3935 22.2676 15.4347 22.0549 15.4347C21.4716 15.4347 20.9089 15.098 20.655 14.5276L20.1404 13.3731C19.7973 12.6034 20.1404 11.6963 20.9158 11.3527H20.9226ZM11.4049 21.4066C11.7068 20.6163 12.592 20.2246 13.3812 20.5269L14.5614 20.9805C15.3506 21.2829 15.7486 22.1694 15.4467 22.9597C15.2134 23.5713 14.6369 23.9424 14.0193 23.9424C13.8341 23.9424 13.6488 23.908 13.4704 23.8393L12.2901 23.3857C11.5009 23.0833 11.1029 22.1968 11.4117 21.4066H11.4049ZM14.9457 35.515L13.7929 36.0304C13.5939 36.1197 13.3812 36.1609 13.1684 36.1609C12.5852 36.1609 12.0225 35.8242 11.7686 35.2538C11.4255 34.4841 11.7686 33.577 12.544 33.2334L13.6968 32.718C14.4654 32.3675 15.3712 32.718 15.7143 33.4946C16.0574 34.2642 15.7143 35.1714 14.9389 35.515H14.9457ZM27.8328 47.493C25.582 47.493 23.7636 45.665 23.7636 43.4179H31.9021C31.9021 45.6719 30.0836 47.493 27.8328 47.493ZM34.4754 42.1122H21.1903V37.5491H34.4754V42.1122ZM35.8203 35.5837L35.3743 36.0304H20.2982L19.8522 35.5837C15.4467 31.1718 15.4467 23.9973 19.8522 19.5855C24.1135 15.311 31.559 15.311 35.8272 19.5855C37.9613 21.7227 39.1347 24.5609 39.1347 27.5846C39.1347 30.6083 37.9613 33.4465 35.8272 35.5837H35.8203ZM41.6257 20.252L42.7785 19.7366C43.5471 19.393 44.4529 19.7366 44.796 20.5132C45.1391 21.2829 44.796 22.19 44.0206 22.5336L42.8678 23.049C42.6687 23.1383 42.456 23.1796 42.2433 23.1796C41.66 23.1796 41.0973 22.8428 40.8434 22.2724C40.5003 21.5028 40.8434 20.5957 41.6188 20.252H41.6257ZM45.1666 34.3605C44.9333 34.9721 44.3568 35.3432 43.7392 35.3432C43.554 35.3432 43.3687 35.3088 43.1903 35.2401L42.01 34.7865C41.2208 34.4841 40.8228 33.5976 41.1316 32.8074C41.4336 32.0171 42.3256 31.6254 43.1079 31.9277L44.2882 32.3813C45.0774 32.6837 45.4754 33.5702 45.1666 34.3605Z" fill="#0070BB"/>
</g>
<g id="Group_7">
<path id="Vector_25" d="M19.8453 35.5837C15.4398 31.1718 15.4398 23.9973 19.8453 19.5855C22.0892 17.3383 25.2046 16.3006 28.2857 16.4174V0L0 8.35646V45.6444L28.2857 61.9931V47.438C28.1347 47.4518 27.9906 47.4861 27.8328 47.4861C25.582 47.4861 23.7636 45.6582 23.7636 43.411H28.2857V42.1053H21.1903V37.5422H28.2857V36.0304H20.2982L19.8522 35.5837H19.8453ZM20.9226 11.3527C21.6981 11.0022 22.597 11.3527 22.9401 12.1292L23.4548 13.2838C23.7979 14.0534 23.4548 14.9605 22.6794 15.3041C22.4804 15.3935 22.2676 15.4347 22.0549 15.4347C21.4716 15.4347 20.9089 15.098 20.655 14.5276L20.1404 13.3731C19.7973 12.6034 20.1404 11.6963 20.9158 11.3527H20.9226ZM11.4049 21.4066C11.7068 20.6163 12.592 20.2246 13.3812 20.5269L14.5614 20.9805C15.3506 21.2829 15.7486 22.1694 15.4467 22.9597C15.2134 23.5713 14.6369 23.9424 14.0193 23.9424C13.8341 23.9424 13.6488 23.908 13.4704 23.8393L12.2901 23.3857C11.5009 23.0833 11.1029 22.1968 11.4117 21.4066H11.4049ZM14.9457 35.515L13.7929 36.0304C13.5939 36.1197 13.3812 36.1609 13.1684 36.1609C12.5852 36.1609 12.0225 35.8242 11.7686 35.2538C11.4255 34.4841 11.7686 33.577 12.544 33.2334L13.6968 32.718C14.4654 32.3675 15.3712 32.718 15.7143 33.4946C16.0574 34.2642 15.7143 35.1714 14.9389 35.515H14.9457Z" fill="#0257A5"/>
<path id="Vector_26" d="M25.1015 23.5781C24.2575 23.5781 23.5713 24.2653 23.5713 25.1106V29.4125C23.5713 30.2578 24.2575 30.945 25.1015 30.945C25.9456 30.945 26.6318 30.2578 26.6318 29.4125V25.1106C26.6318 24.2653 25.9456 23.5781 25.1015 23.5781Z" fill="#0257A5"/>
</g>
</g>
</g>
</g>
</g>
<defs>
<clipPath id="clip0_98_4">
<rect width="198" height="62" fill="white"/>
</clipPath>
</defs>
</svg>
