<svg width="218" height="125" viewBox="0 0 218 125" fill="none" xmlns="http://www.w3.org/2000/svg">
<rect x="20" width="178" height="14" rx="7" fill="#F6F6F6"/>
<rect x="30" y="10" width="158" height="94" fill="#F6F6F6"/>
<path d="M25 104H193L218 125H0L25 104Z" fill="#C45C00"/>
<rect x="118" y="13" width="4" height="87" rx="2" fill="#D9D9D9"/>
<rect x="105" y="13" width="4" height="87" rx="2" fill="#D9D9D9"/>
<rect x="92" y="13" width="4" height="87" rx="2" fill="#D9D9D9"/>
<rect x="79" y="13" width="4" height="87" rx="2" fill="#D9D9D9"/>
<rect x="193" y="5" width="4.00001" height="169" rx="2" transform="rotate(90 193 5)" fill="#D9D9D9"/>
<rect x="66" y="13" width="4" height="87" rx="2" fill="#D9D9D9"/>
<rect x="53" y="13" width="4" height="87" rx="2" fill="#D9D9D9"/>
<rect x="40" y="13" width="4" height="87" rx="2" fill="#D9D9D9"/>
<path fill-rule="evenodd" clip-rule="evenodd" d="M30 99.7325V13.2676C30.5978 13.6134 31 14.2597 31 15V98C31 98.7403 30.5978 99.3866 30 99.7325Z" fill="#D9D9D9"/>
<rect x="144" y="13" width="4" height="87" rx="2" fill="#D9D9D9"/>
<rect x="170" y="13" width="4" height="87" rx="2" fill="#D9D9D9"/>
<rect x="131" y="13" width="4" height="87" rx="2" fill="#D9D9D9"/>
<rect x="157" y="13" width="4" height="87" rx="2" fill="#D9D9D9"/>
<rect x="183" y="13" width="4" height="87" rx="2" fill="#D9D9D9"/>
</svg>
