<svg width="564" height="564" viewBox="0 0 564 564" fill="none" xmlns="http://www.w3.org/2000/svg">
<rect width="37.7197" height="37.7197" rx="2" fill="#F9F9F9"/>
<rect y="75.4397" width="37.7197" height="37.7197" rx="2" fill="#F9F9F9"/>
<rect y="150.879" width="37.7197" height="37.7197" rx="2" fill="#F9F9F9"/>
<rect y="226.318" width="37.7197" height="37.7197" rx="2" fill="#F9F9F9"/>
<rect y="299.962" width="37.7197" height="37.7197" rx="2" fill="#F9F9F9"/>
<rect y="375.401" width="37.7197" height="37.7197" rx="2" fill="#F9F9F9"/>
<rect y="450.841" width="37.7197" height="37.7197" rx="2" fill="#F9F9F9"/>
<rect y="526.28" width="37.7197" height="37.7197" rx="2" fill="#F9F9F9"/>
<rect x="37.7198" y="37.7197" width="37.7197" height="37.7197" rx="2" fill="#F9F9F9"/>
<rect x="37.7198" y="113.159" width="37.7197" height="37.7197" rx="2" fill="#F9F9F9"/>
<rect x="37.7198" y="188.599" width="37.7197" height="37.7197" rx="2" fill="#F9F9F9"/>
<rect x="37.7198" y="264.038" width="37.7197" height="35.9236" rx="2" fill="#F9F9F9"/>
<rect x="37.7198" y="337.682" width="37.7197" height="37.7197" rx="2" fill="#F9F9F9"/>
<rect x="37.7198" y="413.121" width="37.7197" height="37.7197" rx="2" fill="#F9F9F9"/>
<rect x="37.7198" y="488.56" width="37.7197" height="37.7197" rx="2" fill="#F9F9F9"/>
<rect x="75.4395" width="37.7197" height="37.7197" rx="2" fill="#F9F9F9"/>
<rect x="75.4395" y="75.4397" width="37.7197" height="37.7197" rx="2" fill="#F9F9F9"/>
<rect x="75.4395" y="150.879" width="37.7197" height="37.7197" rx="2" fill="#F9F9F9"/>
<rect x="75.4395" y="226.318" width="37.7197" height="37.7197" rx="2" fill="#F9F9F9"/>
<rect x="75.4395" y="299.962" width="37.7197" height="37.7197" rx="2" fill="#F9F9F9"/>
<rect x="75.4395" y="375.401" width="37.7197" height="37.7197" rx="2" fill="#F9F9F9"/>
<rect x="75.4395" y="450.841" width="37.7197" height="37.7197" rx="2" fill="#F9F9F9"/>
<rect x="75.4395" y="526.28" width="37.7197" height="37.7197" rx="2" fill="#F9F9F9"/>
<rect x="113.159" y="37.7197" width="37.7197" height="37.7197" rx="2" fill="#F9F9F9"/>
<rect x="113.159" y="113.159" width="37.7197" height="37.7197" rx="2" fill="#F9F9F9"/>
<rect x="113.159" y="188.599" width="37.7197" height="37.7197" rx="2" fill="#F9F9F9"/>
<rect x="113.159" y="264.038" width="37.7197" height="35.9236" rx="2" fill="#F9F9F9"/>
<rect x="113.159" y="337.682" width="37.7197" height="37.7197" rx="2" fill="#F9F9F9"/>
<rect x="113.159" y="413.121" width="37.7197" height="37.7197" rx="2" fill="#F9F9F9"/>
<rect x="113.159" y="488.56" width="37.7197" height="37.7197" rx="2" fill="#F9F9F9"/>
<rect x="150.879" width="37.7197" height="37.7197" rx="2" fill="#F9F9F9"/>
<rect x="150.879" y="75.4397" width="37.7197" height="37.7197" rx="2" fill="#F9F9F9"/>
<rect x="150.879" y="150.879" width="37.7197" height="37.7197" rx="2" fill="#F9F9F9"/>
<rect x="150.879" y="226.318" width="37.7197" height="37.7197" rx="2" fill="#F9F9F9"/>
<rect x="150.879" y="299.962" width="37.7197" height="37.7197" rx="2" fill="#F9F9F9"/>
<rect x="150.879" y="375.401" width="37.7197" height="37.7197" rx="2" fill="#F9F9F9"/>
<rect x="150.879" y="450.841" width="37.7197" height="37.7197" rx="2" fill="#F9F9F9"/>
<rect x="150.879" y="526.28" width="37.7197" height="37.7197" rx="2" fill="#F9F9F9"/>
<rect x="188.599" y="37.7197" width="37.7197" height="37.7197" rx="2" fill="#F9F9F9"/>
<rect x="188.599" y="113.159" width="37.7197" height="37.7197" rx="2" fill="#F9F9F9"/>
<rect x="188.599" y="188.599" width="37.7197" height="37.7197" rx="2" fill="#F9F9F9"/>
<rect x="188.599" y="264.038" width="37.7197" height="35.9236" rx="2" fill="#F9F9F9"/>
<rect x="188.599" y="337.682" width="37.7197" height="37.7197" rx="2" fill="#F9F9F9"/>
<rect x="188.599" y="413.121" width="37.7197" height="37.7197" rx="2" fill="#F9F9F9"/>
<rect x="188.599" y="488.56" width="37.7197" height="37.7197" rx="2" fill="#F9F9F9"/>
<rect x="226.318" width="37.7197" height="37.7197" rx="2" fill="#F9F9F9"/>
<rect x="226.318" y="75.4397" width="37.7197" height="37.7197" rx="2" fill="#F9F9F9"/>
<rect x="226.318" y="150.879" width="37.7197" height="37.7197" rx="2" fill="#F9F9F9"/>
<rect x="226.318" y="226.318" width="37.7197" height="37.7197" rx="2" fill="#F9F9F9"/>
<rect x="226.318" y="299.962" width="37.7197" height="37.7197" rx="2" fill="#F9F9F9"/>
<rect x="226.318" y="375.401" width="37.7197" height="37.7197" rx="2" fill="#F9F9F9"/>
<rect x="226.318" y="450.841" width="37.7197" height="37.7197" rx="2" fill="#F9F9F9"/>
<rect x="226.318" y="526.28" width="37.7197" height="37.7197" rx="2" fill="#F9F9F9"/>
<rect x="264.038" y="37.7197" width="35.9236" height="37.7197" rx="2" fill="#F9F9F9"/>
<rect x="264.038" y="113.159" width="35.9236" height="37.7197" rx="2" fill="#F9F9F9"/>
<rect x="264.038" y="188.599" width="35.9236" height="37.7197" rx="2" fill="#F9F9F9"/>
<rect x="264.038" y="264.038" width="35.9236" height="35.9236" rx="2" fill="#F9F9F9"/>
<rect x="264.038" y="337.682" width="35.9236" height="37.7197" rx="2" fill="#F9F9F9"/>
<rect x="264.038" y="413.121" width="35.9236" height="37.7197" rx="2" fill="#F9F9F9"/>
<rect x="264.038" y="488.56" width="35.9236" height="37.7197" rx="2" fill="#F9F9F9"/>
<rect x="299.962" width="37.7197" height="37.7197" rx="2" fill="#F9F9F9"/>
<rect x="299.962" y="75.4397" width="37.7197" height="37.7197" rx="2" fill="#F9F9F9"/>
<rect x="299.962" y="150.879" width="37.7197" height="37.7197" rx="2" fill="#F9F9F9"/>
<rect x="299.962" y="226.318" width="37.7197" height="37.7197" rx="2" fill="#F9F9F9"/>
<rect x="299.962" y="299.962" width="37.7197" height="37.7197" rx="2" fill="#F9F9F9"/>
<rect x="299.962" y="375.401" width="37.7197" height="37.7197" rx="2" fill="#F9F9F9"/>
<rect x="299.962" y="450.841" width="37.7197" height="37.7197" rx="2" fill="#F9F9F9"/>
<rect x="299.962" y="526.28" width="37.7197" height="37.7197" rx="2" fill="#F9F9F9"/>
<rect x="337.682" y="37.7197" width="37.7197" height="37.7197" rx="2" fill="#F9F9F9"/>
<rect x="337.682" y="113.159" width="37.7197" height="37.7197" rx="2" fill="#F9F9F9"/>
<rect x="337.682" y="188.599" width="37.7197" height="37.7197" rx="2" fill="#F9F9F9"/>
<rect x="337.682" y="264.038" width="37.7197" height="35.9236" rx="2" fill="#F9F9F9"/>
<rect x="337.682" y="337.682" width="37.7197" height="37.7197" rx="2" fill="#F9F9F9"/>
<rect x="337.682" y="413.121" width="37.7197" height="37.7197" rx="2" fill="#F9F9F9"/>
<rect x="337.682" y="488.56" width="37.7197" height="37.7197" rx="2" fill="#F9F9F9"/>
<rect x="375.401" width="37.7197" height="37.7197" rx="2" fill="#F9F9F9"/>
<rect x="375.401" y="75.4397" width="37.7197" height="37.7197" rx="2" fill="#F9F9F9"/>
<rect x="375.401" y="150.879" width="37.7197" height="37.7197" rx="2" fill="#F9F9F9"/>
<rect x="375.401" y="226.318" width="37.7197" height="37.7197" rx="2" fill="#F9F9F9"/>
<rect x="375.401" y="299.962" width="37.7197" height="37.7197" rx="2" fill="#F9F9F9"/>
<rect x="375.401" y="375.401" width="37.7197" height="37.7197" rx="2" fill="#F9F9F9"/>
<rect x="375.401" y="450.841" width="37.7197" height="37.7197" rx="2" fill="#F9F9F9"/>
<rect x="375.401" y="526.28" width="37.7197" height="37.7197" rx="2" fill="#F9F9F9"/>
<rect x="413.121" y="37.7197" width="37.7197" height="37.7197" rx="2" fill="#F9F9F9"/>
<rect x="413.121" y="113.159" width="37.7197" height="37.7197" rx="2" fill="#F9F9F9"/>
<rect x="413.121" y="188.599" width="37.7197" height="37.7197" rx="2" fill="#F9F9F9"/>
<rect x="413.121" y="264.038" width="37.7197" height="35.9236" rx="2" fill="#F9F9F9"/>
<rect x="413.121" y="337.682" width="37.7197" height="37.7197" rx="2" fill="#F9F9F9"/>
<rect x="413.121" y="413.121" width="37.7197" height="37.7197" rx="2" fill="#F9F9F9"/>
<rect x="413.121" y="488.56" width="37.7197" height="37.7197" rx="2" fill="#F9F9F9"/>
<rect x="450.841" width="37.7197" height="37.7197" rx="2" fill="#F9F9F9"/>
<rect x="450.841" y="75.4397" width="37.7197" height="37.7197" rx="2" fill="#F9F9F9"/>
<rect x="450.841" y="150.879" width="37.7197" height="37.7197" rx="2" fill="#F9F9F9"/>
<rect x="450.841" y="226.318" width="37.7197" height="37.7197" rx="2" fill="#F9F9F9"/>
<rect x="450.841" y="299.962" width="37.7197" height="37.7197" rx="2" fill="#F9F9F9"/>
<rect x="450.841" y="375.401" width="37.7197" height="37.7197" rx="2" fill="#F9F9F9"/>
<rect x="450.841" y="450.841" width="37.7197" height="37.7197" rx="2" fill="#F9F9F9"/>
<rect x="450.841" y="526.28" width="37.7197" height="37.7197" rx="2" fill="#F9F9F9"/>
<rect x="488.561" y="37.7197" width="37.7197" height="37.7197" rx="2" fill="#F9F9F9"/>
<rect x="488.561" y="113.159" width="37.7197" height="37.7197" rx="2" fill="#F9F9F9"/>
<rect x="488.561" y="188.599" width="37.7197" height="37.7197" rx="2" fill="#F9F9F9"/>
<rect x="488.561" y="264.038" width="37.7197" height="35.9236" rx="2" fill="#F9F9F9"/>
<rect x="488.561" y="337.682" width="37.7197" height="37.7197" rx="2" fill="#F9F9F9"/>
<rect x="488.561" y="413.121" width="37.7197" height="37.7197" rx="2" fill="#F9F9F9"/>
<rect x="488.561" y="488.56" width="37.7197" height="37.7197" rx="2" fill="#F9F9F9"/>
<rect x="526.28" width="37.7197" height="37.7197" rx="2" fill="#F9F9F9"/>
<rect x="526.28" y="75.4397" width="37.7197" height="37.7197" rx="2" fill="#F9F9F9"/>
<rect x="526.28" y="150.879" width="37.7197" height="37.7197" rx="2" fill="#F9F9F9"/>
<rect x="526.28" y="226.318" width="37.7197" height="37.7197" rx="2" fill="#F9F9F9"/>
<rect x="526.28" y="299.962" width="37.7197" height="37.7197" rx="2" fill="#F9F9F9"/>
<rect x="526.28" y="375.401" width="37.7197" height="37.7197" rx="2" fill="#F9F9F9"/>
<rect x="526.28" y="450.841" width="37.7197" height="37.7197" rx="2" fill="#F9F9F9"/>
<rect x="526.28" y="526.28" width="37.7197" height="37.7197" rx="2" fill="#F9F9F9"/>
<rect y="37.7197" width="37.7197" height="37.7197" rx="2" fill="white"/>
<rect y="113.159" width="37.7197" height="37.7197" rx="2" fill="white"/>
<rect y="188.599" width="37.7197" height="37.7197" rx="2" fill="white"/>
<rect y="264.038" width="37.7197" height="35.9236" rx="2" fill="white"/>
<rect y="337.682" width="37.7197" height="37.7197" rx="2" fill="white"/>
<rect y="413.121" width="37.7197" height="37.7197" rx="2" fill="white"/>
<rect y="488.56" width="37.7197" height="37.7197" rx="2" fill="white"/>
<rect x="37.7198" width="37.7197" height="37.7197" rx="2" fill="white"/>
<rect x="37.7198" y="75.4397" width="37.7197" height="37.7197" rx="2" fill="white"/>
<rect x="37.7198" y="150.879" width="37.7197" height="37.7197" rx="2" fill="white"/>
<rect x="37.7198" y="226.318" width="37.7197" height="37.7197" rx="2" fill="white"/>
<rect x="37.7198" y="299.962" width="37.7197" height="37.7197" rx="2" fill="white"/>
<rect x="37.7198" y="375.401" width="37.7197" height="37.7197" rx="2" fill="white"/>
<rect x="37.7198" y="450.841" width="37.7197" height="37.7197" rx="2" fill="white"/>
<rect x="37.7198" y="526.28" width="37.7197" height="37.7197" rx="2" fill="white"/>
<rect x="75.4395" y="37.7197" width="37.7197" height="37.7197" rx="2" fill="white"/>
<rect x="75.4395" y="113.159" width="37.7197" height="37.7197" rx="2" fill="white"/>
<rect x="75.4395" y="188.599" width="37.7197" height="37.7197" rx="2" fill="white"/>
<rect x="75.4395" y="264.038" width="37.7197" height="35.9236" rx="2" fill="white"/>
<rect x="75.4395" y="337.682" width="37.7197" height="37.7197" rx="2" fill="white"/>
<rect x="75.4395" y="413.121" width="37.7197" height="37.7197" rx="2" fill="white"/>
<rect x="75.4395" y="488.56" width="37.7197" height="37.7197" rx="2" fill="white"/>
<rect x="113.159" width="37.7197" height="37.7197" rx="2" fill="white"/>
<rect x="113.159" y="75.4397" width="37.7197" height="37.7197" rx="2" fill="white"/>
<rect x="113.159" y="150.879" width="37.7197" height="37.7197" rx="2" fill="white"/>
<rect x="113.159" y="226.318" width="37.7197" height="37.7197" rx="2" fill="white"/>
<rect x="113.159" y="299.962" width="37.7197" height="37.7197" rx="2" fill="white"/>
<rect x="113.159" y="375.401" width="37.7197" height="37.7197" rx="2" fill="white"/>
<rect x="113.159" y="450.841" width="37.7197" height="37.7197" rx="2" fill="white"/>
<rect x="113.159" y="526.28" width="37.7197" height="37.7197" rx="2" fill="white"/>
<rect x="150.879" y="37.7197" width="37.7197" height="37.7197" rx="2" fill="white"/>
<rect x="150.879" y="113.159" width="37.7197" height="37.7197" rx="2" fill="white"/>
<rect x="150.879" y="188.599" width="37.7197" height="37.7197" rx="2" fill="white"/>
<rect x="150.879" y="264.038" width="37.7197" height="35.9236" rx="2" fill="white"/>
<rect x="150.879" y="337.682" width="37.7197" height="37.7197" rx="2" fill="white"/>
<rect x="150.879" y="413.121" width="37.7197" height="37.7197" rx="2" fill="white"/>
<rect x="150.879" y="488.56" width="37.7197" height="37.7197" rx="2" fill="white"/>
<rect x="188.599" width="37.7197" height="37.7197" rx="2" fill="white"/>
<rect x="188.599" y="75.4397" width="37.7197" height="37.7197" rx="2" fill="white"/>
<rect x="188.599" y="150.879" width="37.7197" height="37.7197" rx="2" fill="white"/>
<rect x="188.599" y="226.318" width="37.7197" height="37.7197" rx="2" fill="white"/>
<rect x="188.599" y="299.962" width="37.7197" height="37.7197" rx="2" fill="white"/>
<rect x="188.599" y="375.401" width="37.7197" height="37.7197" rx="2" fill="white"/>
<rect x="188.599" y="450.841" width="37.7197" height="37.7197" rx="2" fill="white"/>
<rect x="188.599" y="526.28" width="37.7197" height="37.7197" rx="2" fill="white"/>
<rect x="226.318" y="37.7197" width="37.7197" height="37.7197" rx="2" fill="white"/>
<rect x="226.318" y="113.159" width="37.7197" height="37.7197" rx="2" fill="white"/>
<rect x="226.318" y="188.599" width="37.7197" height="37.7197" rx="2" fill="white"/>
<rect x="226.318" y="264.038" width="37.7197" height="35.9236" rx="2" fill="white"/>
<rect x="226.318" y="337.682" width="37.7197" height="37.7197" rx="2" fill="white"/>
<rect x="226.318" y="413.121" width="37.7197" height="37.7197" rx="2" fill="white"/>
<rect x="226.318" y="488.56" width="37.7197" height="37.7197" rx="2" fill="white"/>
<rect x="264.038" width="35.9236" height="37.7197" rx="2" fill="white"/>
<rect x="264.038" y="75.4397" width="35.9236" height="37.7197" rx="2" fill="white"/>
<rect x="264.038" y="150.879" width="35.9236" height="37.7197" rx="2" fill="white"/>
<rect x="264.038" y="226.318" width="35.9236" height="37.7197" rx="2" fill="white"/>
<rect x="264.038" y="299.962" width="35.9236" height="37.7197" rx="2" fill="white"/>
<rect x="264.038" y="375.401" width="35.9236" height="37.7197" rx="2" fill="white"/>
<rect x="264.038" y="450.841" width="35.9236" height="37.7197" rx="2" fill="white"/>
<rect x="264.038" y="526.28" width="35.9236" height="37.7197" rx="2" fill="white"/>
<rect x="299.962" y="37.7197" width="37.7197" height="37.7197" rx="2" fill="white"/>
<rect x="299.962" y="113.159" width="37.7197" height="37.7197" rx="2" fill="white"/>
<rect x="299.962" y="188.599" width="37.7197" height="37.7197" rx="2" fill="white"/>
<rect x="299.962" y="264.038" width="37.7197" height="35.9236" rx="2" fill="white"/>
<rect x="299.962" y="337.682" width="37.7197" height="37.7197" rx="2" fill="white"/>
<rect x="299.962" y="413.121" width="37.7197" height="37.7197" rx="2" fill="white"/>
<rect x="299.962" y="488.56" width="37.7197" height="37.7197" rx="2" fill="white"/>
<rect x="337.682" width="37.7197" height="37.7197" rx="2" fill="white"/>
<rect x="337.682" y="75.4397" width="37.7197" height="37.7197" rx="2" fill="white"/>
<rect x="337.682" y="150.879" width="37.7197" height="37.7197" rx="2" fill="white"/>
<rect x="337.682" y="226.318" width="37.7197" height="37.7197" rx="2" fill="white"/>
<rect x="337.682" y="299.962" width="37.7197" height="37.7197" rx="2" fill="white"/>
<rect x="337.682" y="375.401" width="37.7197" height="37.7197" rx="2" fill="white"/>
<rect x="337.682" y="450.841" width="37.7197" height="37.7197" rx="2" fill="white"/>
<rect x="337.682" y="526.28" width="37.7197" height="37.7197" rx="2" fill="white"/>
<rect x="375.401" y="37.7197" width="37.7197" height="37.7197" rx="2" fill="white"/>
<rect x="375.401" y="113.159" width="37.7197" height="37.7197" rx="2" fill="white"/>
<rect x="375.401" y="188.599" width="37.7197" height="37.7197" rx="2" fill="white"/>
<rect x="375.401" y="264.038" width="37.7197" height="35.9236" rx="2" fill="white"/>
<rect x="375.401" y="337.682" width="37.7197" height="37.7197" rx="2" fill="white"/>
<rect x="375.401" y="413.121" width="37.7197" height="37.7197" rx="2" fill="white"/>
<rect x="375.401" y="488.56" width="37.7197" height="37.7197" rx="2" fill="white"/>
<rect x="413.121" width="37.7197" height="37.7197" rx="2" fill="white"/>
<rect x="413.121" y="75.4397" width="37.7197" height="37.7197" rx="2" fill="white"/>
<rect x="413.121" y="150.879" width="37.7197" height="37.7197" rx="2" fill="white"/>
<rect x="413.121" y="226.318" width="37.7197" height="37.7197" rx="2" fill="white"/>
<rect x="413.121" y="299.962" width="37.7197" height="37.7197" rx="2" fill="white"/>
<rect x="413.121" y="375.401" width="37.7197" height="37.7197" rx="2" fill="white"/>
<rect x="413.121" y="450.841" width="37.7197" height="37.7197" rx="2" fill="white"/>
<rect x="413.121" y="526.28" width="37.7197" height="37.7197" rx="2" fill="white"/>
<rect x="450.841" y="37.7197" width="37.7197" height="37.7197" rx="2" fill="white"/>
<rect x="450.841" y="113.159" width="37.7197" height="37.7197" rx="2" fill="white"/>
<rect x="450.841" y="188.599" width="37.7197" height="37.7197" rx="2" fill="white"/>
<rect x="450.841" y="264.038" width="37.7197" height="35.9236" rx="2" fill="white"/>
<rect x="450.841" y="337.682" width="37.7197" height="37.7197" rx="2" fill="white"/>
<rect x="450.841" y="413.121" width="37.7197" height="37.7197" rx="2" fill="white"/>
<rect x="450.841" y="488.56" width="37.7197" height="37.7197" rx="2" fill="white"/>
<rect x="488.561" width="37.7197" height="37.7197" rx="2" fill="white"/>
<rect x="488.561" y="75.4397" width="37.7197" height="37.7197" rx="2" fill="white"/>
<rect x="488.561" y="150.879" width="37.7197" height="37.7197" rx="2" fill="white"/>
<rect x="488.561" y="226.318" width="37.7197" height="37.7197" rx="2" fill="white"/>
<rect x="488.561" y="299.962" width="37.7197" height="37.7197" rx="2" fill="white"/>
<rect x="488.561" y="375.401" width="37.7197" height="37.7197" rx="2" fill="white"/>
<rect x="488.561" y="450.841" width="37.7197" height="37.7197" rx="2" fill="white"/>
<rect x="488.561" y="526.28" width="37.7197" height="37.7197" rx="2" fill="white"/>
<rect x="526.28" y="37.7197" width="37.7197" height="37.7197" rx="2" fill="white"/>
<rect x="526.28" y="113.159" width="37.7197" height="37.7197" rx="2" fill="white"/>
<rect x="526.28" y="188.599" width="37.7197" height="37.7197" rx="2" fill="white"/>
<rect x="526.28" y="264.038" width="37.7197" height="35.9236" rx="2" fill="white"/>
<rect x="526.28" y="337.682" width="37.7197" height="37.7197" rx="2" fill="white"/>
<rect x="526.28" y="413.121" width="37.7197" height="37.7197" rx="2" fill="white"/>
<rect x="526.28" y="488.56" width="37.7197" height="37.7197" rx="2" fill="white"/>
<path d="M270.057 143.932C271.467 145.356 273.914 145.356 275.324 143.932L282 137.318L288.676 143.932C290.086 145.356 292.533 145.356 293.943 143.932C295.352 142.508 295.352 140.037 293.943 138.614L287.394 132L293.943 125.386C295.352 123.963 295.352 121.492 293.943 120.068C292.533 118.644 290.086 118.644 288.676 120.068L282 126.682L275.324 120.068C273.914 118.644 271.476 118.644 270.057 120.068C268.648 121.501 268.648 123.963 270.057 125.386L276.606 132L270.057 138.614C268.648 140.166 268.648 142.508 270.057 143.932Z" fill="#E31838"/>
<path d="M307.057 143.932C308.467 145.356 310.914 145.356 312.324 143.932L319 137.318L325.676 143.932C327.086 145.356 329.533 145.356 330.943 143.932C332.352 142.508 332.352 140.037 330.943 138.614L324.394 132L330.943 125.386C332.352 123.963 332.352 121.492 330.943 120.068C329.533 118.644 327.086 118.644 325.676 120.068L319 126.682L312.324 120.068C310.914 118.644 308.476 118.644 307.057 120.068C305.648 121.501 305.648 123.963 307.057 125.386L313.606 132L307.057 138.614C305.648 140.166 305.648 142.508 307.057 143.932Z" fill="#E31838"/>
<path d="M255.943 143.932C254.533 145.356 252.086 145.356 250.676 143.932L244 137.318L237.324 143.932C235.914 145.356 233.467 145.356 232.057 143.932C230.648 142.508 230.648 140.037 232.057 138.614L238.606 132L232.057 125.386C230.648 123.963 230.648 121.492 232.057 120.068C233.467 118.644 235.914 118.644 237.324 120.068L244 126.682L250.676 120.068C252.086 118.644 254.524 118.644 255.943 120.068C257.352 121.501 257.352 123.963 255.943 125.386L249.394 132L255.943 138.614C257.352 140.166 257.352 142.508 255.943 143.932Z" fill="#E31838"/>
<path d="M345.057 181.932C346.467 183.356 348.914 183.356 350.324 181.932L357 175.318L363.676 181.932C365.086 183.356 367.533 183.356 368.943 181.932C370.352 180.508 370.352 178.037 368.943 176.614L362.394 170L368.943 163.386C370.352 161.963 370.352 159.492 368.943 158.068C367.533 156.644 365.086 156.644 363.676 158.068L357 164.682L350.324 158.068C348.914 156.644 346.476 156.644 345.057 158.068C343.648 159.501 343.648 161.963 345.057 163.386L351.606 170L345.057 176.614C343.648 178.166 343.648 180.508 345.057 181.932Z" fill="#E31838"/>
<path d="M217.943 181.932C216.533 183.356 214.086 183.356 212.676 181.932L206 175.318L199.324 181.932C197.914 183.356 195.467 183.356 194.057 181.932C192.648 180.508 192.648 178.037 194.057 176.614L200.606 170L194.057 163.386C192.648 161.963 192.648 159.492 194.057 158.068C195.467 156.644 197.914 156.644 199.324 158.068L206 164.682L212.676 158.068C214.086 156.644 216.524 156.644 217.943 158.068C219.352 159.501 219.352 161.963 217.943 163.386L211.394 170L217.943 176.614C219.352 178.166 219.352 180.508 217.943 181.932Z" fill="#E31838"/>
<path d="M383.057 219.932C384.467 221.356 386.914 221.356 388.324 219.932L395 213.318L401.676 219.932C403.086 221.356 405.533 221.356 406.943 219.932C408.352 218.508 408.352 216.037 406.943 214.614L400.394 208L406.943 201.386C408.352 199.963 408.352 197.492 406.943 196.068C405.533 194.644 403.086 194.644 401.676 196.068L395 202.682L388.324 196.068C386.914 194.644 384.476 194.644 383.057 196.068C381.648 197.501 381.648 199.963 383.057 201.386L389.606 208L383.057 214.614C381.648 216.166 381.648 218.508 383.057 219.932Z" fill="#E31838"/>
<path d="M179.943 219.932C178.533 221.356 176.086 221.356 174.676 219.932L168 213.318L161.324 219.932C159.914 221.356 157.467 221.356 156.057 219.932C154.648 218.508 154.648 216.037 156.057 214.614L162.606 208L156.057 201.386C154.648 199.963 154.648 197.492 156.057 196.068C157.467 194.644 159.914 194.644 161.324 196.068L168 202.682L174.676 196.068C176.086 194.644 178.524 194.644 179.943 196.068C181.352 197.501 181.352 199.963 179.943 201.386L173.394 208L179.943 214.614C181.352 216.166 181.352 218.508 179.943 219.932Z" fill="#E31838"/>
<path d="M383.057 256.932C384.467 258.356 386.914 258.356 388.324 256.932L395 250.318L401.676 256.932C403.086 258.356 405.533 258.356 406.943 256.932C408.352 255.508 408.352 253.037 406.943 251.614L400.394 245L406.943 238.386C408.352 236.963 408.352 234.492 406.943 233.068C405.533 231.644 403.086 231.644 401.676 233.068L395 239.682L388.324 233.068C386.914 231.644 384.476 231.644 383.057 233.068C381.648 234.501 381.648 236.963 383.057 238.386L389.606 245L383.057 251.614C381.648 253.166 381.648 255.508 383.057 256.932Z" fill="#E31838"/>
<path d="M179.943 256.932C178.533 258.356 176.086 258.356 174.676 256.932L168 250.318L161.324 256.932C159.914 258.356 157.467 258.356 156.057 256.932C154.648 255.508 154.648 253.037 156.057 251.614L162.606 245L156.057 238.386C154.648 236.963 154.648 234.492 156.057 233.068C157.467 231.644 159.914 231.644 161.324 233.068L168 239.682L174.676 233.068C176.086 231.644 178.524 231.644 179.943 233.068C181.352 234.501 181.352 236.963 179.943 238.386L173.394 245L179.943 251.614C181.352 253.166 181.352 255.508 179.943 256.932Z" fill="#E31838"/>
<path d="M383.057 293.932C384.467 295.356 386.914 295.356 388.324 293.932L395 287.318L401.676 293.932C403.086 295.356 405.533 295.356 406.943 293.932C408.352 292.508 408.352 290.037 406.943 288.614L400.394 282L406.943 275.386C408.352 273.963 408.352 271.492 406.943 270.068C405.533 268.644 403.086 268.644 401.676 270.068L395 276.682L388.324 270.068C386.914 268.644 384.476 268.644 383.057 270.068C381.648 271.501 381.648 273.963 383.057 275.386L389.606 282L383.057 288.614C381.648 290.166 381.648 292.508 383.057 293.932Z" fill="#E31838"/>
<path d="M179.943 293.932C178.533 295.356 176.086 295.356 174.676 293.932L168 287.318L161.324 293.932C159.914 295.356 157.467 295.356 156.057 293.932C154.648 292.508 154.648 290.037 156.057 288.614L162.606 282L156.057 275.386C154.648 273.963 154.648 271.492 156.057 270.068C157.467 268.644 159.914 268.644 161.324 270.068L168 276.682L174.676 270.068C176.086 268.644 178.524 268.644 179.943 270.068C181.352 271.501 181.352 273.963 179.943 275.386L173.394 282L179.943 288.614C181.352 290.166 181.352 292.508 179.943 293.932Z" fill="#E31838"/>
<path d="M383.057 330.932C384.467 332.356 386.914 332.356 388.324 330.932L395 324.318L401.676 330.932C403.086 332.356 405.533 332.356 406.943 330.932C408.352 329.508 408.352 327.037 406.943 325.614L400.394 319L406.943 312.386C408.352 310.963 408.352 308.492 406.943 307.068C405.533 305.644 403.086 305.644 401.676 307.068L395 313.682L388.324 307.068C386.914 305.644 384.476 305.644 383.057 307.068C381.648 308.501 381.648 310.963 383.057 312.386L389.606 319L383.057 325.614C381.648 327.166 381.648 329.508 383.057 330.932Z" fill="#E31838"/>
<path d="M179.943 330.932C178.533 332.356 176.086 332.356 174.676 330.932L168 324.318L161.324 330.932C159.914 332.356 157.467 332.356 156.057 330.932C154.648 329.508 154.648 327.037 156.057 325.614L162.606 319L156.057 312.386C154.648 310.963 154.648 308.492 156.057 307.068C157.467 305.644 159.914 305.644 161.324 307.068L168 313.682L174.676 307.068C176.086 305.644 178.524 305.644 179.943 307.068C181.352 308.501 181.352 310.963 179.943 312.386L173.394 319L179.943 325.614C181.352 327.166 181.352 329.508 179.943 330.932Z" fill="#E31838"/>
<path d="M345.057 368.932C346.467 370.356 348.914 370.356 350.324 368.932L357 362.318L363.676 368.932C365.086 370.356 367.533 370.356 368.943 368.932C370.352 367.508 370.352 365.037 368.943 363.614L362.394 357L368.943 350.386C370.352 348.963 370.352 346.492 368.943 345.068C367.533 343.644 365.086 343.644 363.676 345.068L357 351.682L350.324 345.068C348.914 343.644 346.476 343.644 345.057 345.068C343.648 346.501 343.648 348.963 345.057 350.386L351.606 357L345.057 363.614C343.648 365.166 343.648 367.508 345.057 368.932Z" fill="#E31838"/>
<path d="M217.943 368.932C216.533 370.356 214.086 370.356 212.676 368.932L206 362.318L199.324 368.932C197.914 370.356 195.467 370.356 194.057 368.932C192.648 367.508 192.648 365.037 194.057 363.614L200.606 357L194.057 350.386C192.648 348.963 192.648 346.492 194.057 345.068C195.467 343.644 197.914 343.644 199.324 345.068L206 351.682L212.676 345.068C214.086 343.644 216.524 343.644 217.943 345.068C219.352 346.501 219.352 348.963 217.943 350.386L211.394 357L217.943 363.614C219.352 365.166 219.352 367.508 217.943 368.932Z" fill="#E31838"/>
<path d="M307.057 405.932C308.467 407.356 310.914 407.356 312.324 405.932L319 399.318L325.676 405.932C327.086 407.356 329.533 407.356 330.943 405.932C332.352 404.508 332.352 402.037 330.943 400.614L324.394 394L330.943 387.386C332.352 385.963 332.352 383.492 330.943 382.068C329.533 380.644 327.086 380.644 325.676 382.068L319 388.682L312.324 382.068C310.914 380.644 308.476 380.644 307.057 382.068C305.648 383.501 305.648 385.963 307.057 387.386L313.606 394L307.057 400.614C305.648 402.166 305.648 404.508 307.057 405.932Z" fill="#E31838"/>
<path d="M255.943 405.932C254.533 407.356 252.086 407.356 250.676 405.932L244 399.318L237.324 405.932C235.914 407.356 233.467 407.356 232.057 405.932C230.648 404.508 230.648 402.037 232.057 400.614L238.606 394L232.057 387.386C230.648 385.963 230.648 383.492 232.057 382.068C233.467 380.644 235.914 380.644 237.324 382.068L244 388.682L250.676 382.068C252.086 380.644 254.524 380.644 255.943 382.068C257.352 383.501 257.352 385.963 255.943 387.386L249.394 394L255.943 400.614C257.352 402.166 257.352 404.508 255.943 405.932Z" fill="#E31838"/>
<path d="M270.057 405.932C271.467 407.356 273.914 407.356 275.324 405.932L282 399.318L288.676 405.932C290.086 407.356 292.533 407.356 293.943 405.932C295.352 404.508 295.352 402.037 293.943 400.614L287.394 394L293.943 387.386C295.352 385.963 295.352 383.492 293.943 382.068C292.533 380.644 290.086 380.644 288.676 382.068L282 388.682L275.324 382.068C273.914 380.644 271.476 380.644 270.057 382.068C268.648 383.501 268.648 385.963 270.057 387.386L276.606 394L270.057 400.614C268.648 402.166 268.648 404.508 270.057 405.932Z" fill="#E31838"/>
<path d="M270.057 480.932C271.467 482.356 273.914 482.356 275.324 480.932L282 474.318L288.676 480.932C290.086 482.356 292.533 482.356 293.943 480.932C295.352 479.508 295.352 477.037 293.943 475.614L287.394 469L293.943 462.386C295.352 460.963 295.352 458.492 293.943 457.068C292.533 455.644 290.086 455.644 288.676 457.068L282 463.682L275.324 457.068C273.914 455.644 271.476 455.644 270.057 457.068C268.648 458.501 268.648 460.963 270.057 462.386L276.606 469L270.057 475.614C268.648 477.166 268.648 479.508 270.057 480.932Z" fill="#E31838"/>
<path d="M232 245.5C232 252.999 238.001 259 245.5 259C252.999 259 259 252.999 259 245.5C259 238.001 253.008 232 245.5 232C238.125 232 232 238.001 232 245.5ZM245.634 239.003C249.259 239.003 252.14 241.875 252.14 245.51C252.14 249.145 249.269 252.016 245.634 252.016C241.999 252.016 239.127 249.145 239.127 245.51C239.003 241.884 241.999 239.003 245.634 239.003Z" fill="#0070BB"/>
<path d="M305 245.5C305 252.999 311.001 259 318.5 259C325.999 259 332 252.999 332 245.5C332 238.001 326.008 232 318.5 232C311.125 232 305 238.001 305 245.5ZM318.634 239.003C322.259 239.003 325.14 241.875 325.14 245.51C325.14 249.145 322.269 252.016 318.634 252.016C314.999 252.016 312.127 249.145 312.127 245.51C312.003 241.884 314.999 239.003 318.634 239.003Z" fill="#0070BB"/>
<path d="M232 282.5C232 289.999 238.001 296 245.5 296C252.999 296 259 289.999 259 282.5C259 275.001 253.008 269 245.5 269C238.125 269 232 275.001 232 282.5ZM245.634 276.003C249.259 276.003 252.14 278.875 252.14 282.51C252.14 286.145 249.269 289.016 245.634 289.016C241.999 289.016 239.127 286.145 239.127 282.51C239.003 278.884 241.999 276.003 245.634 276.003Z" fill="#0070BB"/>
<path d="M305 282.5C305 289.999 311.001 296 318.5 296C325.999 296 332 289.999 332 282.5C332 275.001 326.008 269 318.5 269C311.125 269 305 275.001 305 282.5ZM318.634 276.003C322.259 276.003 325.14 278.875 325.14 282.51C325.14 286.145 322.269 289.016 318.634 289.016C314.999 289.016 312.127 286.145 312.127 282.51C312.003 278.884 314.999 276.003 318.634 276.003Z" fill="#0070BB"/>
<path d="M232 431.5C232 438.999 238.001 445 245.5 445C252.999 445 259 438.999 259 431.5C259 424.001 253.008 418 245.5 418C238.125 418 232 424.001 232 431.5ZM245.634 425.003C249.259 425.003 252.14 427.875 252.14 431.51C252.14 435.145 249.269 438.016 245.634 438.016C241.999 438.016 239.127 435.145 239.127 431.51C239.003 427.884 241.999 425.003 245.634 425.003Z" fill="#0070BB"/>
<path d="M269 431.5C269 438.999 275.001 445 282.5 445C289.999 445 296 438.999 296 431.5C296 424.001 290.008 418 282.5 418C275.125 418 269 424.001 269 431.5ZM282.634 425.003C286.259 425.003 289.14 427.875 289.14 431.51C289.14 435.145 286.269 438.016 282.634 438.016C278.999 438.016 276.127 435.145 276.127 431.51C276.003 427.884 278.999 425.003 282.634 425.003Z" fill="#0070BB"/>
<path d="M306 431.5C306 438.999 312.001 445 319.5 445C326.999 445 333 438.999 333 431.5C333 424.001 327.008 418 319.5 418C312.125 418 306 424.001 306 431.5ZM319.634 425.003C323.259 425.003 326.14 427.875 326.14 431.51C326.14 435.145 323.269 438.016 319.634 438.016C315.999 438.016 313.127 435.145 313.127 431.51C313.003 427.884 315.999 425.003 319.634 425.003Z" fill="#0070BB"/>
</svg>
