<svg width="564" height="564" viewBox="0 0 564 564" fill="none" xmlns="http://www.w3.org/2000/svg">
<rect width="37.7197" height="37.7197" rx="2" fill="#F9F9F9"/>
<rect y="75.4395" width="37.7197" height="37.7197" rx="2" fill="#F9F9F9"/>
<rect y="150.879" width="37.7197" height="37.7197" rx="2" fill="#F9F9F9"/>
<rect y="226.318" width="37.7197" height="37.7197" rx="2" fill="#F9F9F9"/>
<rect y="299.962" width="37.7197" height="37.7197" rx="2" fill="#F9F9F9"/>
<rect y="375.401" width="37.7197" height="37.7197" rx="2" fill="#F9F9F9"/>
<rect y="450.841" width="37.7197" height="37.7197" rx="2" fill="#F9F9F9"/>
<rect y="526.28" width="37.7197" height="37.7197" rx="2" fill="#F9F9F9"/>
<rect x="37.7197" y="37.7197" width="37.7197" height="37.7197" rx="2" fill="#F9F9F9"/>
<rect x="37.7197" y="113.159" width="37.7197" height="37.7197" rx="2" fill="#F9F9F9"/>
<rect x="37.7197" y="188.599" width="37.7197" height="37.7197" rx="2" fill="#F9F9F9"/>
<rect x="37.7197" y="264.038" width="37.7197" height="35.9236" rx="2" fill="#F9F9F9"/>
<rect x="37.7197" y="337.682" width="37.7197" height="37.7197" rx="2" fill="#F9F9F9"/>
<rect x="37.7197" y="413.121" width="37.7197" height="37.7197" rx="2" fill="#F9F9F9"/>
<rect x="37.7197" y="488.561" width="37.7197" height="37.7197" rx="2" fill="#F9F9F9"/>
<rect x="75.4395" width="37.7197" height="37.7197" rx="2" fill="#F9F9F9"/>
<rect x="75.4395" y="75.4395" width="37.7197" height="37.7197" rx="2" fill="#F9F9F9"/>
<rect x="75.4395" y="150.879" width="37.7197" height="37.7197" rx="2" fill="#F9F9F9"/>
<rect x="75.4395" y="226.318" width="37.7197" height="37.7197" rx="2" fill="#F9F9F9"/>
<rect x="75.4395" y="299.962" width="37.7197" height="37.7197" rx="2" fill="#F9F9F9"/>
<rect x="75.4395" y="375.401" width="37.7197" height="37.7197" rx="2" fill="#F9F9F9"/>
<rect x="75.4395" y="450.841" width="37.7197" height="37.7197" rx="2" fill="#F9F9F9"/>
<rect x="75.4395" y="526.28" width="37.7197" height="37.7197" rx="2" fill="#F9F9F9"/>
<rect x="113.159" y="37.7197" width="37.7197" height="37.7197" rx="2" fill="#F9F9F9"/>
<rect x="113.159" y="113.159" width="37.7197" height="37.7197" rx="2" fill="#F9F9F9"/>
<rect x="113.159" y="188.599" width="37.7197" height="37.7197" rx="2" fill="#F9F9F9"/>
<rect x="113.159" y="264.038" width="37.7197" height="35.9236" rx="2" fill="#F9F9F9"/>
<rect x="113.159" y="337.682" width="37.7197" height="37.7197" rx="2" fill="#F9F9F9"/>
<rect x="113.159" y="413.121" width="37.7197" height="37.7197" rx="2" fill="#F9F9F9"/>
<rect x="113.159" y="488.561" width="37.7197" height="37.7197" rx="2" fill="#F9F9F9"/>
<rect x="150.879" width="37.7197" height="37.7197" rx="2" fill="#F9F9F9"/>
<rect x="150.879" y="75.4395" width="37.7197" height="37.7197" rx="2" fill="#F9F9F9"/>
<rect x="150.879" y="150.879" width="37.7197" height="37.7197" rx="2" fill="#F9F9F9"/>
<rect x="150.879" y="226.318" width="37.7197" height="37.7197" rx="2" fill="#F9F9F9"/>
<rect x="150.879" y="299.962" width="37.7197" height="37.7197" rx="2" fill="#F9F9F9"/>
<rect x="150.879" y="375.401" width="37.7197" height="37.7197" rx="2" fill="#F9F9F9"/>
<rect x="150.879" y="450.841" width="37.7197" height="37.7197" rx="2" fill="#F9F9F9"/>
<rect x="150.879" y="526.28" width="37.7197" height="37.7197" rx="2" fill="#F9F9F9"/>
<rect x="188.599" y="37.7197" width="37.7197" height="37.7197" rx="2" fill="#F9F9F9"/>
<rect x="188.599" y="113.159" width="37.7197" height="37.7197" rx="2" fill="#F9F9F9"/>
<rect x="188.599" y="188.599" width="37.7197" height="37.7197" rx="2" fill="#F9F9F9"/>
<rect x="188.599" y="264.038" width="37.7197" height="35.9236" rx="2" fill="#F9F9F9"/>
<rect x="188.599" y="337.682" width="37.7197" height="37.7197" rx="2" fill="#F9F9F9"/>
<rect x="188.599" y="413.121" width="37.7197" height="37.7197" rx="2" fill="#F9F9F9"/>
<rect x="188.599" y="488.561" width="37.7197" height="37.7197" rx="2" fill="#F9F9F9"/>
<rect x="226.318" width="37.7197" height="37.7197" rx="2" fill="#F9F9F9"/>
<rect x="226.318" y="75.4395" width="37.7197" height="37.7197" rx="2" fill="#F9F9F9"/>
<rect x="226.318" y="150.879" width="37.7197" height="37.7197" rx="2" fill="#F9F9F9"/>
<rect x="226.318" y="226.318" width="37.7197" height="37.7197" rx="2" fill="#F9F9F9"/>
<rect x="226.318" y="299.962" width="37.7197" height="37.7197" rx="2" fill="#F9F9F9"/>
<rect x="226.318" y="375.401" width="37.7197" height="37.7197" rx="2" fill="#F9F9F9"/>
<rect x="226.318" y="450.841" width="37.7197" height="37.7197" rx="2" fill="#F9F9F9"/>
<rect x="226.318" y="526.28" width="37.7197" height="37.7197" rx="2" fill="#F9F9F9"/>
<rect x="264.038" y="37.7197" width="35.9236" height="37.7197" rx="2" fill="#F9F9F9"/>
<rect x="264.038" y="113.159" width="35.9236" height="37.7197" rx="2" fill="#F9F9F9"/>
<rect x="264.038" y="188.599" width="35.9236" height="37.7197" rx="2" fill="#F9F9F9"/>
<rect x="264.038" y="264.038" width="35.9236" height="35.9236" rx="2" fill="#F9F9F9"/>
<rect x="264.038" y="337.682" width="35.9236" height="37.7197" rx="2" fill="#F9F9F9"/>
<rect x="264.038" y="413.121" width="35.9236" height="37.7197" rx="2" fill="#F9F9F9"/>
<rect x="264.038" y="488.561" width="35.9236" height="37.7197" rx="2" fill="#F9F9F9"/>
<rect x="299.962" width="37.7197" height="37.7197" rx="2" fill="#F9F9F9"/>
<rect x="299.962" y="75.4395" width="37.7197" height="37.7197" rx="2" fill="#F9F9F9"/>
<rect x="299.962" y="150.879" width="37.7197" height="37.7197" rx="2" fill="#F9F9F9"/>
<rect x="299.962" y="226.318" width="37.7197" height="37.7197" rx="2" fill="#F9F9F9"/>
<rect x="299.962" y="299.962" width="37.7197" height="37.7197" rx="2" fill="#F9F9F9"/>
<rect x="299.962" y="375.401" width="37.7197" height="37.7197" rx="2" fill="#F9F9F9"/>
<rect x="299.962" y="450.841" width="37.7197" height="37.7197" rx="2" fill="#F9F9F9"/>
<rect x="299.962" y="526.28" width="37.7197" height="37.7197" rx="2" fill="#F9F9F9"/>
<rect x="337.682" y="37.7197" width="37.7197" height="37.7197" rx="2" fill="#F9F9F9"/>
<rect x="337.682" y="113.159" width="37.7197" height="37.7197" rx="2" fill="#F9F9F9"/>
<rect x="337.682" y="188.599" width="37.7197" height="37.7197" rx="2" fill="#F9F9F9"/>
<rect x="337.682" y="264.038" width="37.7197" height="35.9236" rx="2" fill="#F9F9F9"/>
<rect x="337.682" y="337.682" width="37.7197" height="37.7197" rx="2" fill="#F9F9F9"/>
<rect x="337.682" y="413.121" width="37.7197" height="37.7197" rx="2" fill="#F9F9F9"/>
<rect x="337.682" y="488.561" width="37.7197" height="37.7197" rx="2" fill="#F9F9F9"/>
<rect x="375.401" width="37.7197" height="37.7197" rx="2" fill="#F9F9F9"/>
<rect x="375.401" y="75.4395" width="37.7197" height="37.7197" rx="2" fill="#F9F9F9"/>
<rect x="375.401" y="150.879" width="37.7197" height="37.7197" rx="2" fill="#F9F9F9"/>
<rect x="375.401" y="226.318" width="37.7197" height="37.7197" rx="2" fill="#F9F9F9"/>
<rect x="375.401" y="299.962" width="37.7197" height="37.7197" rx="2" fill="#F9F9F9"/>
<rect x="375.401" y="375.401" width="37.7197" height="37.7197" rx="2" fill="#F9F9F9"/>
<rect x="375.401" y="450.841" width="37.7197" height="37.7197" rx="2" fill="#F9F9F9"/>
<rect x="375.401" y="526.28" width="37.7197" height="37.7197" rx="2" fill="#F9F9F9"/>
<rect x="413.121" y="37.7197" width="37.7197" height="37.7197" rx="2" fill="#F9F9F9"/>
<rect x="413.121" y="113.159" width="37.7197" height="37.7197" rx="2" fill="#F9F9F9"/>
<rect x="413.121" y="188.599" width="37.7197" height="37.7197" rx="2" fill="#F9F9F9"/>
<rect x="413.121" y="264.038" width="37.7197" height="35.9236" rx="2" fill="#F9F9F9"/>
<rect x="413.121" y="337.682" width="37.7197" height="37.7197" rx="2" fill="#F9F9F9"/>
<rect x="413.121" y="413.121" width="37.7197" height="37.7197" rx="2" fill="#F9F9F9"/>
<rect x="413.121" y="488.561" width="37.7197" height="37.7197" rx="2" fill="#F9F9F9"/>
<rect x="450.841" width="37.7197" height="37.7197" rx="2" fill="#F9F9F9"/>
<rect x="450.841" y="75.4395" width="37.7197" height="37.7197" rx="2" fill="#F9F9F9"/>
<rect x="450.841" y="150.879" width="37.7197" height="37.7197" rx="2" fill="#F9F9F9"/>
<rect x="450.841" y="226.318" width="37.7197" height="37.7197" rx="2" fill="#F9F9F9"/>
<rect x="450.841" y="299.962" width="37.7197" height="37.7197" rx="2" fill="#F9F9F9"/>
<rect x="450.841" y="375.401" width="37.7197" height="37.7197" rx="2" fill="#F9F9F9"/>
<rect x="450.841" y="450.841" width="37.7197" height="37.7197" rx="2" fill="#F9F9F9"/>
<rect x="450.841" y="526.28" width="37.7197" height="37.7197" rx="2" fill="#F9F9F9"/>
<rect x="488.561" y="37.7197" width="37.7197" height="37.7197" rx="2" fill="#F9F9F9"/>
<rect x="488.561" y="113.159" width="37.7197" height="37.7197" rx="2" fill="#F9F9F9"/>
<rect x="488.561" y="188.599" width="37.7197" height="37.7197" rx="2" fill="#F9F9F9"/>
<rect x="488.561" y="264.038" width="37.7197" height="35.9236" rx="2" fill="#F9F9F9"/>
<rect x="488.561" y="337.682" width="37.7197" height="37.7197" rx="2" fill="#F9F9F9"/>
<rect x="488.561" y="413.121" width="37.7197" height="37.7197" rx="2" fill="#F9F9F9"/>
<rect x="488.561" y="488.561" width="37.7197" height="37.7197" rx="2" fill="#F9F9F9"/>
<rect x="526.28" width="37.7197" height="37.7197" rx="2" fill="#F9F9F9"/>
<rect x="526.28" y="75.4395" width="37.7197" height="37.7197" rx="2" fill="#F9F9F9"/>
<rect x="526.28" y="150.879" width="37.7197" height="37.7197" rx="2" fill="#F9F9F9"/>
<rect x="526.28" y="226.318" width="37.7197" height="37.7197" rx="2" fill="#F9F9F9"/>
<rect x="526.28" y="299.962" width="37.7197" height="37.7197" rx="2" fill="#F9F9F9"/>
<rect x="526.28" y="375.401" width="37.7197" height="37.7197" rx="2" fill="#F9F9F9"/>
<rect x="526.28" y="450.841" width="37.7197" height="37.7197" rx="2" fill="#F9F9F9"/>
<rect x="526.28" y="526.28" width="37.7197" height="37.7197" rx="2" fill="#F9F9F9"/>
<rect y="37.7197" width="37.7197" height="37.7197" rx="2" fill="white"/>
<rect y="113.159" width="37.7197" height="37.7197" rx="2" fill="white"/>
<rect y="188.599" width="37.7197" height="37.7197" rx="2" fill="white"/>
<rect y="264.038" width="37.7197" height="35.9236" rx="2" fill="white"/>
<rect y="337.682" width="37.7197" height="37.7197" rx="2" fill="white"/>
<rect y="413.121" width="37.7197" height="37.7197" rx="2" fill="white"/>
<rect y="488.561" width="37.7197" height="37.7197" rx="2" fill="white"/>
<rect x="37.7197" width="37.7197" height="37.7197" rx="2" fill="white"/>
<rect x="37.7197" y="75.4395" width="37.7197" height="37.7197" rx="2" fill="white"/>
<rect x="37.7197" y="150.879" width="37.7197" height="37.7197" rx="2" fill="white"/>
<rect x="37.7197" y="226.318" width="37.7197" height="37.7197" rx="2" fill="white"/>
<rect x="37.7197" y="299.962" width="37.7197" height="37.7197" rx="2" fill="white"/>
<rect x="37.7197" y="375.401" width="37.7197" height="37.7197" rx="2" fill="white"/>
<rect x="37.7197" y="450.841" width="37.7197" height="37.7197" rx="2" fill="white"/>
<rect x="37.7197" y="526.28" width="37.7197" height="37.7197" rx="2" fill="white"/>
<rect x="75.4395" y="37.7197" width="37.7197" height="37.7197" rx="2" fill="white"/>
<rect x="75.4395" y="113.159" width="37.7197" height="37.7197" rx="2" fill="white"/>
<rect x="75.4395" y="188.599" width="37.7197" height="37.7197" rx="2" fill="white"/>
<rect x="75.4395" y="264.038" width="37.7197" height="35.9236" rx="2" fill="white"/>
<rect x="75.4395" y="337.682" width="37.7197" height="37.7197" rx="2" fill="white"/>
<rect x="75.4395" y="413.121" width="37.7197" height="37.7197" rx="2" fill="white"/>
<rect x="75.4395" y="488.561" width="37.7197" height="37.7197" rx="2" fill="white"/>
<rect x="113.159" width="37.7197" height="37.7197" rx="2" fill="white"/>
<rect x="113.159" y="75.4395" width="37.7197" height="37.7197" rx="2" fill="white"/>
<rect x="113.159" y="150.879" width="37.7197" height="37.7197" rx="2" fill="white"/>
<rect x="113.159" y="226.318" width="37.7197" height="37.7197" rx="2" fill="white"/>
<rect x="113.159" y="299.962" width="37.7197" height="37.7197" rx="2" fill="white"/>
<rect x="113.159" y="375.401" width="37.7197" height="37.7197" rx="2" fill="white"/>
<rect x="113.159" y="450.841" width="37.7197" height="37.7197" rx="2" fill="white"/>
<rect x="113.159" y="526.28" width="37.7197" height="37.7197" rx="2" fill="white"/>
<rect x="150.879" y="37.7197" width="37.7197" height="37.7197" rx="2" fill="white"/>
<rect x="150.879" y="113.159" width="37.7197" height="37.7197" rx="2" fill="white"/>
<rect x="150.879" y="188.599" width="37.7197" height="37.7197" rx="2" fill="white"/>
<rect x="150.879" y="264.038" width="37.7197" height="35.9236" rx="2" fill="white"/>
<rect x="150.879" y="337.682" width="37.7197" height="37.7197" rx="2" fill="white"/>
<rect x="150.879" y="413.121" width="37.7197" height="37.7197" rx="2" fill="white"/>
<rect x="150.879" y="488.561" width="37.7197" height="37.7197" rx="2" fill="white"/>
<rect x="188.599" width="37.7197" height="37.7197" rx="2" fill="white"/>
<rect x="188.599" y="75.4395" width="37.7197" height="37.7197" rx="2" fill="white"/>
<rect x="188.599" y="150.879" width="37.7197" height="37.7197" rx="2" fill="white"/>
<rect x="188.599" y="226.318" width="37.7197" height="37.7197" rx="2" fill="white"/>
<rect x="188.599" y="299.962" width="37.7197" height="37.7197" rx="2" fill="white"/>
<rect x="188.599" y="375.401" width="37.7197" height="37.7197" rx="2" fill="white"/>
<rect x="188.599" y="450.841" width="37.7197" height="37.7197" rx="2" fill="white"/>
<rect x="188.599" y="526.28" width="37.7197" height="37.7197" rx="2" fill="white"/>
<rect x="226.318" y="37.7197" width="37.7197" height="37.7197" rx="2" fill="white"/>
<rect x="226.318" y="113.159" width="37.7197" height="37.7197" rx="2" fill="white"/>
<rect x="226.318" y="188.599" width="37.7197" height="37.7197" rx="2" fill="white"/>
<rect x="226.318" y="264.038" width="37.7197" height="35.9236" rx="2" fill="white"/>
<rect x="226.318" y="337.682" width="37.7197" height="37.7197" rx="2" fill="white"/>
<rect x="226.318" y="413.121" width="37.7197" height="37.7197" rx="2" fill="white"/>
<rect x="226.318" y="488.561" width="37.7197" height="37.7197" rx="2" fill="white"/>
<rect x="264.038" width="35.9236" height="37.7197" rx="2" fill="white"/>
<rect x="264.038" y="75.4395" width="35.9236" height="37.7197" rx="2" fill="white"/>
<rect x="264.038" y="150.879" width="35.9236" height="37.7197" rx="2" fill="white"/>
<rect x="264.038" y="226.318" width="35.9236" height="37.7197" rx="2" fill="white"/>
<rect x="264.038" y="299.962" width="35.9236" height="37.7197" rx="2" fill="white"/>
<rect x="264.038" y="375.401" width="35.9236" height="37.7197" rx="2" fill="white"/>
<rect x="264.038" y="450.841" width="35.9236" height="37.7197" rx="2" fill="white"/>
<rect x="264.038" y="526.28" width="35.9236" height="37.7197" rx="2" fill="white"/>
<rect x="299.962" y="37.7197" width="37.7197" height="37.7197" rx="2" fill="white"/>
<rect x="299.962" y="113.159" width="37.7197" height="37.7197" rx="2" fill="white"/>
<rect x="299.962" y="188.599" width="37.7197" height="37.7197" rx="2" fill="white"/>
<rect x="299.962" y="264.038" width="37.7197" height="35.9236" rx="2" fill="white"/>
<rect x="299.962" y="337.682" width="37.7197" height="37.7197" rx="2" fill="white"/>
<rect x="299.962" y="413.121" width="37.7197" height="37.7197" rx="2" fill="white"/>
<rect x="299.962" y="488.561" width="37.7197" height="37.7197" rx="2" fill="white"/>
<rect x="337.682" width="37.7197" height="37.7197" rx="2" fill="white"/>
<rect x="337.682" y="75.4395" width="37.7197" height="37.7197" rx="2" fill="white"/>
<rect x="337.682" y="150.879" width="37.7197" height="37.7197" rx="2" fill="white"/>
<rect x="337.682" y="226.318" width="37.7197" height="37.7197" rx="2" fill="white"/>
<rect x="337.682" y="299.962" width="37.7197" height="37.7197" rx="2" fill="white"/>
<rect x="337.682" y="375.401" width="37.7197" height="37.7197" rx="2" fill="white"/>
<rect x="337.682" y="450.841" width="37.7197" height="37.7197" rx="2" fill="white"/>
<rect x="337.682" y="526.28" width="37.7197" height="37.7197" rx="2" fill="white"/>
<rect x="375.401" y="37.7197" width="37.7197" height="37.7197" rx="2" fill="white"/>
<rect x="375.401" y="113.159" width="37.7197" height="37.7197" rx="2" fill="white"/>
<rect x="375.401" y="188.599" width="37.7197" height="37.7197" rx="2" fill="white"/>
<rect x="375.401" y="264.038" width="37.7197" height="35.9236" rx="2" fill="white"/>
<rect x="375.401" y="337.682" width="37.7197" height="37.7197" rx="2" fill="white"/>
<rect x="375.401" y="413.121" width="37.7197" height="37.7197" rx="2" fill="white"/>
<rect x="375.401" y="488.561" width="37.7197" height="37.7197" rx="2" fill="white"/>
<rect x="413.121" width="37.7197" height="37.7197" rx="2" fill="white"/>
<rect x="413.121" y="75.4395" width="37.7197" height="37.7197" rx="2" fill="white"/>
<rect x="413.121" y="150.879" width="37.7197" height="37.7197" rx="2" fill="white"/>
<rect x="413.121" y="226.318" width="37.7197" height="37.7197" rx="2" fill="white"/>
<rect x="413.121" y="299.962" width="37.7197" height="37.7197" rx="2" fill="white"/>
<rect x="413.121" y="375.401" width="37.7197" height="37.7197" rx="2" fill="white"/>
<rect x="413.121" y="450.841" width="37.7197" height="37.7197" rx="2" fill="white"/>
<rect x="413.121" y="526.28" width="37.7197" height="37.7197" rx="2" fill="white"/>
<rect x="450.841" y="37.7197" width="37.7197" height="37.7197" rx="2" fill="white"/>
<rect x="450.841" y="113.159" width="37.7197" height="37.7197" rx="2" fill="white"/>
<rect x="450.841" y="188.599" width="37.7197" height="37.7197" rx="2" fill="white"/>
<rect x="450.841" y="264.038" width="37.7197" height="35.9236" rx="2" fill="white"/>
<rect x="450.841" y="337.682" width="37.7197" height="37.7197" rx="2" fill="white"/>
<rect x="450.841" y="413.121" width="37.7197" height="37.7197" rx="2" fill="white"/>
<rect x="450.841" y="488.561" width="37.7197" height="37.7197" rx="2" fill="white"/>
<rect x="488.561" width="37.7197" height="37.7197" rx="2" fill="white"/>
<rect x="488.561" y="75.4395" width="37.7197" height="37.7197" rx="2" fill="white"/>
<rect x="488.561" y="150.879" width="37.7197" height="37.7197" rx="2" fill="white"/>
<rect x="488.561" y="226.318" width="37.7197" height="37.7197" rx="2" fill="white"/>
<rect x="488.561" y="299.962" width="37.7197" height="37.7197" rx="2" fill="white"/>
<rect x="488.561" y="375.401" width="37.7197" height="37.7197" rx="2" fill="white"/>
<rect x="488.561" y="450.841" width="37.7197" height="37.7197" rx="2" fill="white"/>
<rect x="488.561" y="526.28" width="37.7197" height="37.7197" rx="2" fill="white"/>
<rect x="526.28" y="37.7197" width="37.7197" height="37.7197" rx="2" fill="white"/>
<rect x="526.28" y="113.159" width="37.7197" height="37.7197" rx="2" fill="white"/>
<rect x="526.28" y="188.599" width="37.7197" height="37.7197" rx="2" fill="white"/>
<rect x="526.28" y="264.038" width="37.7197" height="35.9236" rx="2" fill="white"/>
<rect x="526.28" y="337.682" width="37.7197" height="37.7197" rx="2" fill="white"/>
<rect x="526.28" y="413.121" width="37.7197" height="37.7197" rx="2" fill="white"/>
<rect x="526.28" y="488.561" width="37.7197" height="37.7197" rx="2" fill="white"/>
<path d="M94 304C94 358.437 137.563 402 192 402C246.437 402 290 358.437 290 304C290 249.563 246.506 206 192 206C138.464 206 94 249.563 94 304ZM192.97 256.835C219.288 256.835 240.204 277.682 240.204 304.069C240.204 330.457 219.357 351.303 192.97 351.303C166.582 351.303 145.736 330.457 145.736 304.069C144.835 277.751 166.582 256.835 192.97 256.835Z" fill="#0070BB"/>
<path d="M264.39 356.029C275.999 364.568 293.383 361.833 301.807 350.14L341.846 295.686L396.675 335.211C408.283 343.75 425.667 341.014 434.092 329.322C442.516 317.63 439.753 300.074 428.145 291.535L374.221 251.868L413.355 197.556C421.779 185.864 419.017 168.309 407.408 159.769C395.799 151.23 378.416 153.966 369.991 165.658L329.952 220.112L275.124 180.588C263.515 172.048 246.196 174.774 237.706 186.476C229.292 198.234 232.045 215.724 243.653 224.263L297.577 263.93L258.443 318.242C250.162 330.848 252.782 347.49 264.39 356.029Z" fill="#E31838"/>
</svg>
