<svg width="564" height="564" viewBox="0 0 564 564" fill="none" xmlns="http://www.w3.org/2000/svg">
<rect width="37.7197" height="37.7197" rx="2" fill="#F9F9F9"/>
<rect y="75.4395" width="37.7197" height="37.7197" rx="2" fill="#F9F9F9"/>
<rect y="150.879" width="37.7197" height="37.7197" rx="2" fill="#F9F9F9"/>
<rect y="226.318" width="37.7197" height="37.7197" rx="2" fill="#F9F9F9"/>
<rect y="299.962" width="37.7197" height="37.7197" rx="2" fill="#F9F9F9"/>
<rect y="375.401" width="37.7197" height="37.7197" rx="2" fill="#F9F9F9"/>
<rect y="450.841" width="37.7197" height="37.7197" rx="2" fill="#F9F9F9"/>
<rect y="526.28" width="37.7197" height="37.7197" rx="2" fill="#F9F9F9"/>
<rect x="37.7197" y="37.7197" width="37.7197" height="37.7197" rx="2" fill="#F9F9F9"/>
<rect x="37.7197" y="113.159" width="37.7197" height="37.7197" rx="2" fill="#F9F9F9"/>
<rect x="37.7197" y="188.599" width="37.7197" height="37.7197" rx="2" fill="#F9F9F9"/>
<rect x="37.7197" y="264.038" width="37.7197" height="35.9236" rx="2" fill="#F9F9F9"/>
<rect x="37.7197" y="337.682" width="37.7197" height="37.7197" rx="2" fill="#F9F9F9"/>
<rect x="37.7197" y="413.121" width="37.7197" height="37.7197" rx="2" fill="#F9F9F9"/>
<rect x="37.7197" y="488.561" width="37.7197" height="37.7197" rx="2" fill="#F9F9F9"/>
<rect x="75.4395" width="37.7197" height="37.7197" rx="2" fill="#F9F9F9"/>
<rect x="75.4395" y="75.4395" width="37.7197" height="37.7197" rx="2" fill="#F9F9F9"/>
<rect x="75.4395" y="150.879" width="37.7197" height="37.7197" rx="2" fill="#F9F9F9"/>
<rect x="75.4395" y="226.318" width="37.7197" height="37.7197" rx="2" fill="#F9F9F9"/>
<rect x="75.4395" y="299.962" width="37.7197" height="37.7197" rx="2" fill="#F9F9F9"/>
<rect x="75.4395" y="375.401" width="37.7197" height="37.7197" rx="2" fill="#F9F9F9"/>
<rect x="75.4395" y="450.841" width="37.7197" height="37.7197" rx="2" fill="#F9F9F9"/>
<rect x="75.4395" y="526.28" width="37.7197" height="37.7197" rx="2" fill="#F9F9F9"/>
<rect x="113.159" y="37.7197" width="37.7197" height="37.7197" rx="2" fill="#F9F9F9"/>
<rect x="113.159" y="113.159" width="37.7197" height="37.7197" rx="2" fill="#F9F9F9"/>
<rect x="113.159" y="188.599" width="37.7197" height="37.7197" rx="2" fill="#F9F9F9"/>
<rect x="113.159" y="264.038" width="37.7197" height="35.9236" rx="2" fill="#F9F9F9"/>
<rect x="113.159" y="337.682" width="37.7197" height="37.7197" rx="2" fill="#F9F9F9"/>
<rect x="113.159" y="413.121" width="37.7197" height="37.7197" rx="2" fill="#F9F9F9"/>
<rect x="113.159" y="488.561" width="37.7197" height="37.7197" rx="2" fill="#F9F9F9"/>
<rect x="150.879" width="37.7197" height="37.7197" rx="2" fill="#F9F9F9"/>
<rect x="150.879" y="75.4395" width="37.7197" height="37.7197" rx="2" fill="#F9F9F9"/>
<rect x="150.879" y="150.879" width="37.7197" height="37.7197" rx="2" fill="#F9F9F9"/>
<rect x="150.879" y="226.318" width="37.7197" height="37.7197" rx="2" fill="#F9F9F9"/>
<rect x="150.879" y="299.962" width="37.7197" height="37.7197" rx="2" fill="#F9F9F9"/>
<rect x="150.879" y="375.401" width="37.7197" height="37.7197" rx="2" fill="#F9F9F9"/>
<rect x="150.879" y="450.841" width="37.7197" height="37.7197" rx="2" fill="#F9F9F9"/>
<rect x="150.879" y="526.28" width="37.7197" height="37.7197" rx="2" fill="#F9F9F9"/>
<rect x="188.599" y="37.7197" width="37.7197" height="37.7197" rx="2" fill="#F9F9F9"/>
<rect x="188.599" y="113.159" width="37.7197" height="37.7197" rx="2" fill="#F9F9F9"/>
<rect x="188.599" y="188.599" width="37.7197" height="37.7197" rx="2" fill="#F9F9F9"/>
<rect x="188.599" y="264.038" width="37.7197" height="35.9236" rx="2" fill="#F9F9F9"/>
<rect x="188.599" y="337.682" width="37.7197" height="37.7197" rx="2" fill="#F9F9F9"/>
<rect x="188.599" y="413.121" width="37.7197" height="37.7197" rx="2" fill="#F9F9F9"/>
<rect x="188.599" y="488.561" width="37.7197" height="37.7197" rx="2" fill="#F9F9F9"/>
<rect x="226.318" width="37.7197" height="37.7197" rx="2" fill="#F9F9F9"/>
<rect x="226.318" y="75.4395" width="37.7197" height="37.7197" rx="2" fill="#F9F9F9"/>
<rect x="226.318" y="150.879" width="37.7197" height="37.7197" rx="2" fill="#F9F9F9"/>
<rect x="226.318" y="226.318" width="37.7197" height="37.7197" rx="2" fill="#F9F9F9"/>
<rect x="226.318" y="299.962" width="37.7197" height="37.7197" rx="2" fill="#F9F9F9"/>
<rect x="226.318" y="375.401" width="37.7197" height="37.7197" rx="2" fill="#F9F9F9"/>
<rect x="226.318" y="450.841" width="37.7197" height="37.7197" rx="2" fill="#F9F9F9"/>
<rect x="226.318" y="526.28" width="37.7197" height="37.7197" rx="2" fill="#F9F9F9"/>
<rect x="264.038" y="37.7197" width="35.9236" height="37.7197" rx="2" fill="#F9F9F9"/>
<rect x="264.038" y="113.159" width="35.9236" height="37.7197" rx="2" fill="#F9F9F9"/>
<rect x="264.038" y="188.599" width="35.9236" height="37.7197" rx="2" fill="#F9F9F9"/>
<rect x="264.038" y="264.038" width="35.9236" height="35.9236" rx="2" fill="#F9F9F9"/>
<rect x="264.038" y="337.682" width="35.9236" height="37.7197" rx="2" fill="#F9F9F9"/>
<rect x="264.038" y="413.121" width="35.9236" height="37.7197" rx="2" fill="#F9F9F9"/>
<rect x="264.038" y="488.561" width="35.9236" height="37.7197" rx="2" fill="#F9F9F9"/>
<rect x="299.962" width="37.7197" height="37.7197" rx="2" fill="#F9F9F9"/>
<rect x="299.962" y="75.4395" width="37.7197" height="37.7197" rx="2" fill="#F9F9F9"/>
<rect x="299.962" y="150.879" width="37.7197" height="37.7197" rx="2" fill="#F9F9F9"/>
<rect x="299.962" y="226.318" width="37.7197" height="37.7197" rx="2" fill="#F9F9F9"/>
<rect x="299.962" y="299.962" width="37.7197" height="37.7197" rx="2" fill="#F9F9F9"/>
<rect x="299.962" y="375.401" width="37.7197" height="37.7197" rx="2" fill="#F9F9F9"/>
<rect x="299.962" y="450.841" width="37.7197" height="37.7197" rx="2" fill="#F9F9F9"/>
<rect x="299.962" y="526.28" width="37.7197" height="37.7197" rx="2" fill="#F9F9F9"/>
<rect x="337.682" y="37.7197" width="37.7197" height="37.7197" rx="2" fill="#F9F9F9"/>
<rect x="337.682" y="113.159" width="37.7197" height="37.7197" rx="2" fill="#F9F9F9"/>
<rect x="337.682" y="188.599" width="37.7197" height="37.7197" rx="2" fill="#F9F9F9"/>
<rect x="337.682" y="264.038" width="37.7197" height="35.9236" rx="2" fill="#F9F9F9"/>
<rect x="337.682" y="337.682" width="37.7197" height="37.7197" rx="2" fill="#F9F9F9"/>
<rect x="337.682" y="413.121" width="37.7197" height="37.7197" rx="2" fill="#F9F9F9"/>
<rect x="337.682" y="488.561" width="37.7197" height="37.7197" rx="2" fill="#F9F9F9"/>
<rect x="375.401" width="37.7197" height="37.7197" rx="2" fill="#F9F9F9"/>
<rect x="375.401" y="75.4395" width="37.7197" height="37.7197" rx="2" fill="#F9F9F9"/>
<rect x="375.401" y="150.879" width="37.7197" height="37.7197" rx="2" fill="#F9F9F9"/>
<rect x="375.401" y="226.318" width="37.7197" height="37.7197" rx="2" fill="#F9F9F9"/>
<rect x="375.401" y="299.962" width="37.7197" height="37.7197" rx="2" fill="#F9F9F9"/>
<rect x="375.401" y="375.401" width="37.7197" height="37.7197" rx="2" fill="#F9F9F9"/>
<rect x="375.401" y="450.841" width="37.7197" height="37.7197" rx="2" fill="#F9F9F9"/>
<rect x="375.401" y="526.28" width="37.7197" height="37.7197" rx="2" fill="#F9F9F9"/>
<rect x="413.121" y="37.7197" width="37.7197" height="37.7197" rx="2" fill="#F9F9F9"/>
<rect x="413.121" y="113.159" width="37.7197" height="37.7197" rx="2" fill="#F9F9F9"/>
<rect x="413.121" y="188.599" width="37.7197" height="37.7197" rx="2" fill="#F9F9F9"/>
<rect x="413.121" y="264.038" width="37.7197" height="35.9236" rx="2" fill="#F9F9F9"/>
<rect x="413.121" y="337.682" width="37.7197" height="37.7197" rx="2" fill="#F9F9F9"/>
<rect x="413.121" y="413.121" width="37.7197" height="37.7197" rx="2" fill="#F9F9F9"/>
<rect x="413.121" y="488.561" width="37.7197" height="37.7197" rx="2" fill="#F9F9F9"/>
<rect x="450.841" width="37.7197" height="37.7197" rx="2" fill="#F9F9F9"/>
<rect x="450.841" y="75.4395" width="37.7197" height="37.7197" rx="2" fill="#F9F9F9"/>
<rect x="450.841" y="150.879" width="37.7197" height="37.7197" rx="2" fill="#F9F9F9"/>
<rect x="450.841" y="226.318" width="37.7197" height="37.7197" rx="2" fill="#F9F9F9"/>
<rect x="450.841" y="299.962" width="37.7197" height="37.7197" rx="2" fill="#F9F9F9"/>
<rect x="450.841" y="375.401" width="37.7197" height="37.7197" rx="2" fill="#F9F9F9"/>
<rect x="450.841" y="450.841" width="37.7197" height="37.7197" rx="2" fill="#F9F9F9"/>
<rect x="450.841" y="526.28" width="37.7197" height="37.7197" rx="2" fill="#F9F9F9"/>
<rect x="488.561" y="37.7197" width="37.7197" height="37.7197" rx="2" fill="#F9F9F9"/>
<rect x="488.561" y="113.159" width="37.7197" height="37.7197" rx="2" fill="#F9F9F9"/>
<rect x="488.561" y="188.599" width="37.7197" height="37.7197" rx="2" fill="#F9F9F9"/>
<rect x="488.561" y="264.038" width="37.7197" height="35.9236" rx="2" fill="#F9F9F9"/>
<rect x="488.561" y="337.682" width="37.7197" height="37.7197" rx="2" fill="#F9F9F9"/>
<rect x="488.561" y="413.121" width="37.7197" height="37.7197" rx="2" fill="#F9F9F9"/>
<rect x="488.561" y="488.561" width="37.7197" height="37.7197" rx="2" fill="#F9F9F9"/>
<rect x="526.28" width="37.7197" height="37.7197" rx="2" fill="#F9F9F9"/>
<rect x="526.28" y="75.4395" width="37.7197" height="37.7197" rx="2" fill="#F9F9F9"/>
<rect x="526.28" y="150.879" width="37.7197" height="37.7197" rx="2" fill="#F9F9F9"/>
<rect x="526.28" y="226.318" width="37.7197" height="37.7197" rx="2" fill="#F9F9F9"/>
<rect x="526.28" y="299.962" width="37.7197" height="37.7197" rx="2" fill="#F9F9F9"/>
<rect x="526.28" y="375.401" width="37.7197" height="37.7197" rx="2" fill="#F9F9F9"/>
<rect x="526.28" y="450.841" width="37.7197" height="37.7197" rx="2" fill="#F9F9F9"/>
<rect x="526.28" y="526.28" width="37.7197" height="37.7197" rx="2" fill="#F9F9F9"/>
<rect y="37.7197" width="37.7197" height="37.7197" rx="2" fill="white"/>
<rect y="113.159" width="37.7197" height="37.7197" rx="2" fill="white"/>
<rect y="188.599" width="37.7197" height="37.7197" rx="2" fill="white"/>
<rect y="264.038" width="37.7197" height="35.9236" rx="2" fill="white"/>
<rect y="337.682" width="37.7197" height="37.7197" rx="2" fill="white"/>
<rect y="413.121" width="37.7197" height="37.7197" rx="2" fill="white"/>
<rect y="488.561" width="37.7197" height="37.7197" rx="2" fill="white"/>
<rect x="37.7197" width="37.7197" height="37.7197" rx="2" fill="white"/>
<rect x="37.7197" y="75.4395" width="37.7197" height="37.7197" rx="2" fill="white"/>
<rect x="37.7197" y="150.879" width="37.7197" height="37.7197" rx="2" fill="white"/>
<rect x="37.7197" y="226.318" width="37.7197" height="37.7197" rx="2" fill="white"/>
<rect x="37.7197" y="299.962" width="37.7197" height="37.7197" rx="2" fill="white"/>
<rect x="37.7197" y="375.401" width="37.7197" height="37.7197" rx="2" fill="white"/>
<rect x="37.7197" y="450.841" width="37.7197" height="37.7197" rx="2" fill="white"/>
<rect x="37.7197" y="526.28" width="37.7197" height="37.7197" rx="2" fill="white"/>
<rect x="75.4395" y="37.7197" width="37.7197" height="37.7197" rx="2" fill="white"/>
<rect x="75.4395" y="113.159" width="37.7197" height="37.7197" rx="2" fill="white"/>
<rect x="75.4395" y="188.599" width="37.7197" height="37.7197" rx="2" fill="white"/>
<rect x="75.4395" y="264.038" width="37.7197" height="35.9236" rx="2" fill="white"/>
<rect x="75.4395" y="337.682" width="37.7197" height="37.7197" rx="2" fill="white"/>
<rect x="75.4395" y="413.121" width="37.7197" height="37.7197" rx="2" fill="white"/>
<rect x="75.4395" y="488.561" width="37.7197" height="37.7197" rx="2" fill="white"/>
<rect x="113.159" width="37.7197" height="37.7197" rx="2" fill="white"/>
<rect x="113.159" y="75.4395" width="37.7197" height="37.7197" rx="2" fill="white"/>
<rect x="113.159" y="150.879" width="37.7197" height="37.7197" rx="2" fill="white"/>
<rect x="113.159" y="226.318" width="37.7197" height="37.7197" rx="2" fill="white"/>
<rect x="113.159" y="299.962" width="37.7197" height="37.7197" rx="2" fill="white"/>
<rect x="113.159" y="375.401" width="37.7197" height="37.7197" rx="2" fill="white"/>
<rect x="113.159" y="450.841" width="37.7197" height="37.7197" rx="2" fill="white"/>
<rect x="113.159" y="526.28" width="37.7197" height="37.7197" rx="2" fill="white"/>
<rect x="150.879" y="37.7197" width="37.7197" height="37.7197" rx="2" fill="white"/>
<rect x="150.879" y="113.159" width="37.7197" height="37.7197" rx="2" fill="white"/>
<rect x="150.879" y="188.599" width="37.7197" height="37.7197" rx="2" fill="white"/>
<rect x="150.879" y="264.038" width="37.7197" height="35.9236" rx="2" fill="white"/>
<rect x="150.879" y="337.682" width="37.7197" height="37.7197" rx="2" fill="white"/>
<rect x="150.879" y="413.121" width="37.7197" height="37.7197" rx="2" fill="white"/>
<rect x="150.879" y="488.561" width="37.7197" height="37.7197" rx="2" fill="white"/>
<rect x="188.599" width="37.7197" height="37.7197" rx="2" fill="white"/>
<rect x="188.599" y="75.4395" width="37.7197" height="37.7197" rx="2" fill="white"/>
<rect x="188.599" y="150.879" width="37.7197" height="37.7197" rx="2" fill="white"/>
<rect x="188.599" y="226.318" width="37.7197" height="37.7197" rx="2" fill="white"/>
<rect x="188.599" y="299.962" width="37.7197" height="37.7197" rx="2" fill="white"/>
<rect x="188.599" y="375.401" width="37.7197" height="37.7197" rx="2" fill="white"/>
<rect x="188.599" y="450.841" width="37.7197" height="37.7197" rx="2" fill="white"/>
<rect x="188.599" y="526.28" width="37.7197" height="37.7197" rx="2" fill="white"/>
<rect x="226.318" y="37.7197" width="37.7197" height="37.7197" rx="2" fill="white"/>
<rect x="226.318" y="113.159" width="37.7197" height="37.7197" rx="2" fill="white"/>
<rect x="226.318" y="188.599" width="37.7197" height="37.7197" rx="2" fill="white"/>
<rect x="226.318" y="264.038" width="37.7197" height="35.9236" rx="2" fill="white"/>
<rect x="226.318" y="337.682" width="37.7197" height="37.7197" rx="2" fill="white"/>
<rect x="226.318" y="413.121" width="37.7197" height="37.7197" rx="2" fill="white"/>
<rect x="226.318" y="488.561" width="37.7197" height="37.7197" rx="2" fill="white"/>
<rect x="264.038" width="35.9236" height="37.7197" rx="2" fill="white"/>
<rect x="264.038" y="75.4395" width="35.9236" height="37.7197" rx="2" fill="white"/>
<rect x="264.038" y="150.879" width="35.9236" height="37.7197" rx="2" fill="white"/>
<rect x="264.038" y="226.318" width="35.9236" height="37.7197" rx="2" fill="white"/>
<rect x="264.038" y="299.962" width="35.9236" height="37.7197" rx="2" fill="white"/>
<rect x="264.038" y="375.401" width="35.9236" height="37.7197" rx="2" fill="white"/>
<rect x="264.038" y="450.841" width="35.9236" height="37.7197" rx="2" fill="white"/>
<rect x="264.038" y="526.28" width="35.9236" height="37.7197" rx="2" fill="white"/>
<rect x="299.962" y="37.7197" width="37.7197" height="37.7197" rx="2" fill="white"/>
<rect x="299.962" y="113.159" width="37.7197" height="37.7197" rx="2" fill="white"/>
<rect x="299.962" y="188.599" width="37.7197" height="37.7197" rx="2" fill="white"/>
<rect x="299.962" y="264.038" width="37.7197" height="35.9236" rx="2" fill="white"/>
<rect x="299.962" y="337.682" width="37.7197" height="37.7197" rx="2" fill="white"/>
<rect x="299.962" y="413.121" width="37.7197" height="37.7197" rx="2" fill="white"/>
<rect x="299.962" y="488.561" width="37.7197" height="37.7197" rx="2" fill="white"/>
<rect x="337.682" width="37.7197" height="37.7197" rx="2" fill="white"/>
<rect x="337.682" y="75.4395" width="37.7197" height="37.7197" rx="2" fill="white"/>
<rect x="337.682" y="150.879" width="37.7197" height="37.7197" rx="2" fill="white"/>
<rect x="337.682" y="226.318" width="37.7197" height="37.7197" rx="2" fill="white"/>
<rect x="337.682" y="299.962" width="37.7197" height="37.7197" rx="2" fill="white"/>
<rect x="337.682" y="375.401" width="37.7197" height="37.7197" rx="2" fill="white"/>
<rect x="337.682" y="450.841" width="37.7197" height="37.7197" rx="2" fill="white"/>
<rect x="337.682" y="526.28" width="37.7197" height="37.7197" rx="2" fill="white"/>
<rect x="375.401" y="37.7197" width="37.7197" height="37.7197" rx="2" fill="white"/>
<rect x="375.401" y="113.159" width="37.7197" height="37.7197" rx="2" fill="white"/>
<rect x="375.401" y="188.599" width="37.7197" height="37.7197" rx="2" fill="white"/>
<rect x="375.401" y="264.038" width="37.7197" height="35.9236" rx="2" fill="white"/>
<rect x="375.401" y="337.682" width="37.7197" height="37.7197" rx="2" fill="white"/>
<rect x="375.401" y="413.121" width="37.7197" height="37.7197" rx="2" fill="white"/>
<rect x="375.401" y="488.561" width="37.7197" height="37.7197" rx="2" fill="white"/>
<rect x="413.121" width="37.7197" height="37.7197" rx="2" fill="white"/>
<rect x="413.121" y="75.4395" width="37.7197" height="37.7197" rx="2" fill="white"/>
<rect x="413.121" y="150.879" width="37.7197" height="37.7197" rx="2" fill="white"/>
<rect x="413.121" y="226.318" width="37.7197" height="37.7197" rx="2" fill="white"/>
<rect x="413.121" y="299.962" width="37.7197" height="37.7197" rx="2" fill="white"/>
<rect x="413.121" y="375.401" width="37.7197" height="37.7197" rx="2" fill="white"/>
<rect x="413.121" y="450.841" width="37.7197" height="37.7197" rx="2" fill="white"/>
<rect x="413.121" y="526.28" width="37.7197" height="37.7197" rx="2" fill="white"/>
<rect x="450.841" y="37.7197" width="37.7197" height="37.7197" rx="2" fill="white"/>
<rect x="450.841" y="113.159" width="37.7197" height="37.7197" rx="2" fill="white"/>
<rect x="450.841" y="188.599" width="37.7197" height="37.7197" rx="2" fill="white"/>
<rect x="450.841" y="264.038" width="37.7197" height="35.9236" rx="2" fill="white"/>
<rect x="450.841" y="337.682" width="37.7197" height="37.7197" rx="2" fill="white"/>
<rect x="450.841" y="413.121" width="37.7197" height="37.7197" rx="2" fill="white"/>
<rect x="450.841" y="488.561" width="37.7197" height="37.7197" rx="2" fill="white"/>
<rect x="488.561" width="37.7197" height="37.7197" rx="2" fill="white"/>
<rect x="488.561" y="75.4395" width="37.7197" height="37.7197" rx="2" fill="white"/>
<rect x="488.561" y="150.879" width="37.7197" height="37.7197" rx="2" fill="white"/>
<rect x="488.561" y="226.318" width="37.7197" height="37.7197" rx="2" fill="white"/>
<rect x="488.561" y="299.962" width="37.7197" height="37.7197" rx="2" fill="white"/>
<rect x="488.561" y="375.401" width="37.7197" height="37.7197" rx="2" fill="white"/>
<rect x="488.561" y="450.841" width="37.7197" height="37.7197" rx="2" fill="white"/>
<rect x="488.561" y="526.28" width="37.7197" height="37.7197" rx="2" fill="white"/>
<rect x="526.28" y="37.7197" width="37.7197" height="37.7197" rx="2" fill="white"/>
<rect x="526.28" y="113.159" width="37.7197" height="37.7197" rx="2" fill="white"/>
<rect x="526.28" y="188.599" width="37.7197" height="37.7197" rx="2" fill="white"/>
<rect x="526.28" y="264.038" width="37.7197" height="35.9236" rx="2" fill="white"/>
<rect x="526.28" y="337.682" width="37.7197" height="37.7197" rx="2" fill="white"/>
<rect x="526.28" y="413.121" width="37.7197" height="37.7197" rx="2" fill="white"/>
<rect x="526.28" y="488.561" width="37.7197" height="37.7197" rx="2" fill="white"/>
<path d="M270.057 143.932C271.467 145.356 273.914 145.356 275.324 143.932L282 137.318L288.676 143.932C290.086 145.356 292.533 145.356 293.943 143.932C295.352 142.508 295.352 140.037 293.943 138.614L287.394 132L293.943 125.386C295.352 123.963 295.352 121.492 293.943 120.068C292.533 118.644 290.086 118.644 288.676 120.068L282 126.682L275.324 120.068C273.914 118.644 271.476 118.644 270.057 120.068C268.648 121.501 268.648 123.963 270.057 125.386L276.606 132L270.057 138.614C268.648 140.166 268.648 142.508 270.057 143.932Z" fill="#E31838"/>
<path d="M158.057 405.932C159.467 407.356 161.914 407.356 163.324 405.932L170 399.318L176.676 405.932C178.086 407.356 180.533 407.356 181.943 405.932C183.352 404.508 183.352 402.037 181.943 400.614L175.394 394L181.943 387.386C183.352 385.963 183.352 383.492 181.943 382.068C180.533 380.644 178.086 380.644 176.676 382.068L170 388.682L163.324 382.068C161.914 380.644 159.476 380.644 158.057 382.068C156.648 383.501 156.648 385.963 158.057 387.386L164.606 394L158.057 400.614C156.648 402.166 156.648 404.508 158.057 405.932Z" fill="#E31838"/>
<path d="M458.057 518.932C459.467 520.356 461.914 520.356 463.324 518.932L470 512.318L476.676 518.932C478.086 520.356 480.533 520.356 481.943 518.932C483.352 517.508 483.352 515.037 481.943 513.614L475.394 507L481.943 500.386C483.352 498.963 483.352 496.492 481.943 495.068C480.533 493.644 478.086 493.644 476.676 495.068L470 501.682L463.324 495.068C461.914 493.644 459.476 493.644 458.057 495.068C456.648 496.501 456.648 498.963 458.057 500.386L464.606 507L458.057 513.614C456.648 515.166 456.648 517.508 458.057 518.932Z" fill="#E31838"/>
<path d="M81 206.5C81 213.999 87.0011 220 94.5 220C101.999 220 108 213.999 108 206.5C108 199.001 102.008 193 94.5 193C87.1251 193 81 199.001 81 206.5ZM94.6336 200.003C98.259 200.003 101.14 202.875 101.14 206.51C101.14 210.145 98.2686 213.016 94.6336 213.016C90.9986 213.016 88.1269 210.145 88.1269 206.51C88.0028 202.884 90.9986 200.003 94.6336 200.003Z" fill="#0070BB"/>
<path d="M306 431.5C306 438.999 312.001 445 319.5 445C326.999 445 333 438.999 333 431.5C333 424.001 327.008 418 319.5 418C312.125 418 306 424.001 306 431.5ZM319.634 425.003C323.259 425.003 326.14 427.875 326.14 431.51C326.14 435.145 323.269 438.016 319.634 438.016C315.999 438.016 313.127 435.145 313.127 431.51C313.003 427.884 315.999 425.003 319.634 425.003Z" fill="#0070BB"/>
<path d="M249.427 331.995C244.431 330.254 241.359 327.919 240.212 324.989C239.064 322.058 239.585 317.451 241.776 311.165C244.191 304.235 247.018 298.714 250.258 294.602C253.66 290.546 257.183 287.437 260.829 285.273C264.531 282.949 267.847 281.212 270.777 280.065C273.329 278.966 276.122 277.951 279.157 277.021C282.354 276.147 285.445 275.055 288.431 273.746C291.474 272.276 294.17 270.505 296.519 268.432C298.924 266.197 300.688 263.469 301.811 260.245C303.777 254.605 303.114 249.765 299.822 245.726C296.587 241.526 291.907 238.359 285.783 236.225C279.659 234.091 274.729 233.457 270.993 234.324C267.313 235.03 264.298 236.419 261.949 238.493C259.657 240.405 257.367 242.047 255.082 243.419C252.852 244.63 250.126 244.674 246.903 243.551C243.68 242.428 240.85 240.176 238.413 236.797C235.976 233.417 235.571 229.391 237.2 224.717C238.716 220.366 242.037 216.282 247.163 212.465C252.344 208.487 259.098 205.961 267.425 204.887C275.752 203.812 285.314 205.156 296.112 208.919C306.426 212.514 314.833 217.431 321.334 223.673C327.89 229.753 332.196 236.585 334.252 244.169C336.526 251.649 336.343 259.176 333.703 266.75C331.737 272.391 328.784 277.235 324.843 281.284C321.063 285.389 316.968 288.842 312.558 291.642C308.148 294.443 303.963 296.599 300.002 298.111C296.203 299.679 293.273 300.826 291.212 301.554C285.681 303.422 281.415 305.55 278.414 307.938C275.413 310.326 273.109 313.048 271.503 316.103C270.057 319.213 268.604 322.864 267.144 327.054C266.358 329.311 264.685 331.258 262.126 332.896C259.623 334.374 255.39 334.073 249.427 331.995ZM230.883 385.988C225.726 384.191 222.02 380.821 219.767 375.879C217.513 370.937 217.256 365.968 218.997 360.972C220.794 355.815 224.084 352.081 228.865 349.771C233.863 347.356 238.86 347.019 243.856 348.76C249.014 350.557 252.719 353.927 254.973 358.869C257.444 363.706 257.781 368.703 255.984 373.861C254.243 378.857 250.873 382.562 245.875 384.977C241.038 387.448 236.04 387.785 230.883 385.988Z" fill="#0070BB"/>
</svg>
