<svg width="564" height="580" viewBox="0 0 564 580" fill="none" xmlns="http://www.w3.org/2000/svg">
<rect y="16" width="37.7197" height="37.7197" rx="2" fill="#F9F9F9"/>
<rect y="91.4395" width="37.7197" height="37.7197" rx="2" fill="#F9F9F9"/>
<rect y="166.879" width="37.7197" height="37.7197" rx="2" fill="#F9F9F9"/>
<rect y="242.318" width="37.7197" height="37.7197" rx="2" fill="#F9F9F9"/>
<rect y="315.962" width="37.7197" height="37.7197" rx="2" fill="#F9F9F9"/>
<rect y="391.401" width="37.7197" height="37.7197" rx="2" fill="#F9F9F9"/>
<rect y="466.841" width="37.7197" height="37.7197" rx="2" fill="#F9F9F9"/>
<rect y="542.28" width="37.7197" height="37.7197" rx="2" fill="#F9F9F9"/>
<rect x="37.7198" y="53.7197" width="37.7197" height="37.7197" rx="2" fill="#F9F9F9"/>
<rect x="37.7198" y="129.159" width="37.7197" height="37.7197" rx="2" fill="#F9F9F9"/>
<rect x="37.7198" y="204.599" width="37.7197" height="37.7197" rx="2" fill="#F9F9F9"/>
<rect x="37.7198" y="280.038" width="37.7197" height="35.9236" rx="2" fill="#F9F9F9"/>
<rect x="37.7198" y="353.682" width="37.7197" height="37.7197" rx="2" fill="#F9F9F9"/>
<rect x="37.7198" y="429.121" width="37.7197" height="37.7197" rx="2" fill="#F9F9F9"/>
<rect x="37.7198" y="504.561" width="37.7197" height="37.7197" rx="2" fill="#F9F9F9"/>
<rect x="75.4395" y="16" width="37.7197" height="37.7197" rx="2" fill="#F9F9F9"/>
<rect x="75.4395" y="91.4395" width="37.7197" height="37.7197" rx="2" fill="#F9F9F9"/>
<rect x="75.4395" y="166.879" width="37.7197" height="37.7197" rx="2" fill="#F9F9F9"/>
<rect x="75.4395" y="242.318" width="37.7197" height="37.7197" rx="2" fill="#F9F9F9"/>
<rect x="75.4395" y="315.962" width="37.7197" height="37.7197" rx="2" fill="#F9F9F9"/>
<rect x="75.4395" y="391.401" width="37.7197" height="37.7197" rx="2" fill="#F9F9F9"/>
<rect x="75.4395" y="466.841" width="37.7197" height="37.7197" rx="2" fill="#F9F9F9"/>
<rect x="75.4395" y="542.28" width="37.7197" height="37.7197" rx="2" fill="#F9F9F9"/>
<rect x="113.159" y="53.7197" width="37.7197" height="37.7197" rx="2" fill="#F9F9F9"/>
<rect x="113.159" y="129.159" width="37.7197" height="37.7197" rx="2" fill="#F9F9F9"/>
<rect x="113.159" y="204.599" width="37.7197" height="37.7197" rx="2" fill="#F9F9F9"/>
<rect x="113.159" y="280.038" width="37.7197" height="35.9236" rx="2" fill="#F9F9F9"/>
<rect x="113.159" y="353.682" width="37.7197" height="37.7197" rx="2" fill="#F9F9F9"/>
<rect x="113.159" y="429.121" width="37.7197" height="37.7197" rx="2" fill="#F9F9F9"/>
<rect x="113.159" y="504.561" width="37.7197" height="37.7197" rx="2" fill="#F9F9F9"/>
<rect x="150.879" y="16" width="37.7197" height="37.7197" rx="2" fill="#F9F9F9"/>
<rect x="150.879" y="91.4395" width="37.7197" height="37.7197" rx="2" fill="#F9F9F9"/>
<rect x="150.879" y="166.879" width="37.7197" height="37.7197" rx="2" fill="#F9F9F9"/>
<rect x="150.879" y="242.318" width="37.7197" height="37.7197" rx="2" fill="#F9F9F9"/>
<rect x="150.879" y="315.962" width="37.7197" height="37.7197" rx="2" fill="#F9F9F9"/>
<rect x="150.879" y="391.401" width="37.7197" height="37.7197" rx="2" fill="#F9F9F9"/>
<rect x="150.879" y="466.841" width="37.7197" height="37.7197" rx="2" fill="#F9F9F9"/>
<rect x="150.879" y="542.28" width="37.7197" height="37.7197" rx="2" fill="#F9F9F9"/>
<rect x="188.599" y="53.7197" width="37.7197" height="37.7197" rx="2" fill="#F9F9F9"/>
<rect x="188.599" y="129.159" width="37.7197" height="37.7197" rx="2" fill="#F9F9F9"/>
<rect x="188.599" y="204.599" width="37.7197" height="37.7197" rx="2" fill="#F9F9F9"/>
<rect x="188.599" y="280.038" width="37.7197" height="35.9236" rx="2" fill="#F9F9F9"/>
<rect x="188.599" y="353.682" width="37.7197" height="37.7197" rx="2" fill="#F9F9F9"/>
<rect x="188.599" y="429.121" width="37.7197" height="37.7197" rx="2" fill="#F9F9F9"/>
<rect x="188.599" y="504.561" width="37.7197" height="37.7197" rx="2" fill="#F9F9F9"/>
<rect x="226.318" y="16" width="37.7197" height="37.7197" rx="2" fill="#F9F9F9"/>
<rect x="226.318" y="91.4395" width="37.7197" height="37.7197" rx="2" fill="#F9F9F9"/>
<rect x="226.318" y="166.879" width="37.7197" height="37.7197" rx="2" fill="#F9F9F9"/>
<rect x="226.318" y="242.318" width="37.7197" height="37.7197" rx="2" fill="#F9F9F9"/>
<rect x="226.318" y="315.962" width="37.7197" height="37.7197" rx="2" fill="#F9F9F9"/>
<rect x="226.318" y="391.401" width="37.7197" height="37.7197" rx="2" fill="#F9F9F9"/>
<rect x="226.318" y="466.841" width="37.7197" height="37.7197" rx="2" fill="#F9F9F9"/>
<rect x="226.318" y="542.28" width="37.7197" height="37.7197" rx="2" fill="#F9F9F9"/>
<rect x="264.038" y="53.7197" width="35.9236" height="37.7197" rx="2" fill="#F9F9F9"/>
<rect x="264.038" y="129.159" width="35.9236" height="37.7197" rx="2" fill="#F9F9F9"/>
<rect x="264.038" y="204.599" width="35.9236" height="37.7197" rx="2" fill="#F9F9F9"/>
<rect x="264.038" y="280.038" width="35.9236" height="35.9236" rx="2" fill="#F9F9F9"/>
<rect x="264.038" y="353.682" width="35.9236" height="37.7197" rx="2" fill="#F9F9F9"/>
<rect x="264.038" y="429.121" width="35.9236" height="37.7197" rx="2" fill="#F9F9F9"/>
<rect x="264.038" y="504.561" width="35.9236" height="37.7197" rx="2" fill="#F9F9F9"/>
<rect x="299.962" y="16" width="37.7197" height="37.7197" rx="2" fill="#F9F9F9"/>
<rect x="299.962" y="91.4395" width="37.7197" height="37.7197" rx="2" fill="#F9F9F9"/>
<rect x="299.962" y="166.879" width="37.7197" height="37.7197" rx="2" fill="#F9F9F9"/>
<rect x="299.962" y="242.318" width="37.7197" height="37.7197" rx="2" fill="#F9F9F9"/>
<rect x="299.962" y="315.962" width="37.7197" height="37.7197" rx="2" fill="#F9F9F9"/>
<rect x="299.962" y="391.401" width="37.7197" height="37.7197" rx="2" fill="#F9F9F9"/>
<rect x="299.962" y="466.841" width="37.7197" height="37.7197" rx="2" fill="#F9F9F9"/>
<rect x="299.962" y="542.28" width="37.7197" height="37.7197" rx="2" fill="#F9F9F9"/>
<rect x="337.682" y="53.7197" width="37.7197" height="37.7197" rx="2" fill="#F9F9F9"/>
<rect x="337.682" y="129.159" width="37.7197" height="37.7197" rx="2" fill="#F9F9F9"/>
<rect x="337.682" y="204.599" width="37.7197" height="37.7197" rx="2" fill="#F9F9F9"/>
<rect x="337.682" y="280.038" width="37.7197" height="35.9236" rx="2" fill="#F9F9F9"/>
<rect x="337.682" y="353.682" width="37.7197" height="37.7197" rx="2" fill="#F9F9F9"/>
<rect x="337.682" y="429.121" width="37.7197" height="37.7197" rx="2" fill="#F9F9F9"/>
<rect x="337.682" y="504.561" width="37.7197" height="37.7197" rx="2" fill="#F9F9F9"/>
<rect x="375.401" y="16" width="37.7197" height="37.7197" rx="2" fill="#F9F9F9"/>
<rect x="375.401" y="91.4395" width="37.7197" height="37.7197" rx="2" fill="#F9F9F9"/>
<rect x="375.401" y="166.879" width="37.7197" height="37.7197" rx="2" fill="#F9F9F9"/>
<rect x="375.401" y="242.318" width="37.7197" height="37.7197" rx="2" fill="#F9F9F9"/>
<rect x="375.401" y="315.962" width="37.7197" height="37.7197" rx="2" fill="#F9F9F9"/>
<rect x="375.401" y="391.401" width="37.7197" height="37.7197" rx="2" fill="#F9F9F9"/>
<rect x="375.401" y="466.841" width="37.7197" height="37.7197" rx="2" fill="#F9F9F9"/>
<rect x="375.401" y="542.28" width="37.7197" height="37.7197" rx="2" fill="#F9F9F9"/>
<rect x="413.121" y="53.7197" width="37.7197" height="37.7197" rx="2" fill="#F9F9F9"/>
<rect x="413.121" y="129.159" width="37.7197" height="37.7197" rx="2" fill="#F9F9F9"/>
<rect x="413.121" y="204.599" width="37.7197" height="37.7197" rx="2" fill="#F9F9F9"/>
<rect x="413.121" y="280.038" width="37.7197" height="35.9236" rx="2" fill="#F9F9F9"/>
<rect x="413.121" y="353.682" width="37.7197" height="37.7197" rx="2" fill="#F9F9F9"/>
<rect x="413.121" y="429.121" width="37.7197" height="37.7197" rx="2" fill="#F9F9F9"/>
<rect x="413.121" y="504.561" width="37.7197" height="37.7197" rx="2" fill="#F9F9F9"/>
<rect x="450.841" y="16" width="37.7197" height="37.7197" rx="2" fill="#F9F9F9"/>
<rect x="450.841" y="91.4395" width="37.7197" height="37.7197" rx="2" fill="#F9F9F9"/>
<rect x="450.841" y="166.879" width="37.7197" height="37.7197" rx="2" fill="#F9F9F9"/>
<rect x="450.841" y="242.318" width="37.7197" height="37.7197" rx="2" fill="#F9F9F9"/>
<rect x="450.841" y="315.962" width="37.7197" height="37.7197" rx="2" fill="#F9F9F9"/>
<rect x="450.841" y="391.401" width="37.7197" height="37.7197" rx="2" fill="#F9F9F9"/>
<rect x="450.841" y="466.841" width="37.7197" height="37.7197" rx="2" fill="#F9F9F9"/>
<rect x="450.841" y="542.28" width="37.7197" height="37.7197" rx="2" fill="#F9F9F9"/>
<rect x="488.561" y="53.7197" width="37.7197" height="37.7197" rx="2" fill="#F9F9F9"/>
<rect x="488.561" y="129.159" width="37.7197" height="37.7197" rx="2" fill="#F9F9F9"/>
<rect x="488.561" y="204.599" width="37.7197" height="37.7197" rx="2" fill="#F9F9F9"/>
<rect x="488.561" y="280.038" width="37.7197" height="35.9236" rx="2" fill="#F9F9F9"/>
<rect x="488.561" y="353.682" width="37.7197" height="37.7197" rx="2" fill="#F9F9F9"/>
<rect x="488.561" y="429.121" width="37.7197" height="37.7197" rx="2" fill="#F9F9F9"/>
<rect x="488.561" y="504.561" width="37.7197" height="37.7197" rx="2" fill="#F9F9F9"/>
<rect x="526.28" y="16" width="37.7197" height="37.7197" rx="2" fill="#F9F9F9"/>
<rect x="526.28" y="91.4395" width="37.7197" height="37.7197" rx="2" fill="#F9F9F9"/>
<rect x="526.28" y="166.879" width="37.7197" height="37.7197" rx="2" fill="#F9F9F9"/>
<rect x="526.28" y="242.318" width="37.7197" height="37.7197" rx="2" fill="#F9F9F9"/>
<rect x="526.28" y="315.962" width="37.7197" height="37.7197" rx="2" fill="#F9F9F9"/>
<rect x="526.28" y="391.401" width="37.7197" height="37.7197" rx="2" fill="#F9F9F9"/>
<rect x="526.28" y="466.841" width="37.7197" height="37.7197" rx="2" fill="#F9F9F9"/>
<rect x="526.28" y="542.28" width="37.7197" height="37.7197" rx="2" fill="#F9F9F9"/>
<rect y="53.7197" width="37.7197" height="37.7197" rx="2" fill="white"/>
<rect y="129.159" width="37.7197" height="37.7197" rx="2" fill="white"/>
<rect y="204.599" width="37.7197" height="37.7197" rx="2" fill="white"/>
<rect y="280.038" width="37.7197" height="35.9236" rx="2" fill="white"/>
<rect y="353.682" width="37.7197" height="37.7197" rx="2" fill="white"/>
<rect y="429.121" width="37.7197" height="37.7197" rx="2" fill="white"/>
<rect y="504.561" width="37.7197" height="37.7197" rx="2" fill="white"/>
<rect x="37.7198" y="16" width="37.7197" height="37.7197" rx="2" fill="white"/>
<rect x="37.7198" y="91.4395" width="37.7197" height="37.7197" rx="2" fill="white"/>
<rect x="37.7198" y="166.879" width="37.7197" height="37.7197" rx="2" fill="white"/>
<rect x="37.7198" y="242.318" width="37.7197" height="37.7197" rx="2" fill="white"/>
<rect x="37.7198" y="315.962" width="37.7197" height="37.7197" rx="2" fill="white"/>
<rect x="37.7198" y="391.401" width="37.7197" height="37.7197" rx="2" fill="white"/>
<rect x="37.7198" y="466.841" width="37.7197" height="37.7197" rx="2" fill="white"/>
<rect x="37.7198" y="542.28" width="37.7197" height="37.7197" rx="2" fill="white"/>
<rect x="75.4395" y="53.7197" width="37.7197" height="37.7197" rx="2" fill="white"/>
<rect x="75.4395" y="129.159" width="37.7197" height="37.7197" rx="2" fill="white"/>
<rect x="75.4395" y="204.599" width="37.7197" height="37.7197" rx="2" fill="white"/>
<rect x="75.4395" y="280.038" width="37.7197" height="35.9236" rx="2" fill="white"/>
<rect x="75.4395" y="353.682" width="37.7197" height="37.7197" rx="2" fill="white"/>
<rect x="75.4395" y="429.121" width="37.7197" height="37.7197" rx="2" fill="white"/>
<rect x="75.4395" y="504.561" width="37.7197" height="37.7197" rx="2" fill="white"/>
<rect x="113.159" y="16" width="37.7197" height="37.7197" rx="2" fill="white"/>
<rect x="113.159" y="91.4395" width="37.7197" height="37.7197" rx="2" fill="white"/>
<rect x="113.159" y="166.879" width="37.7197" height="37.7197" rx="2" fill="white"/>
<rect x="113.159" y="242.318" width="37.7197" height="37.7197" rx="2" fill="white"/>
<rect x="113.159" y="315.962" width="37.7197" height="37.7197" rx="2" fill="white"/>
<rect x="113.159" y="391.401" width="37.7197" height="37.7197" rx="2" fill="white"/>
<rect x="113.159" y="466.841" width="37.7197" height="37.7197" rx="2" fill="white"/>
<rect x="113.159" y="542.28" width="37.7197" height="37.7197" rx="2" fill="white"/>
<rect x="150.879" y="53.7197" width="37.7197" height="37.7197" rx="2" fill="white"/>
<rect x="150.879" y="129.159" width="37.7197" height="37.7197" rx="2" fill="white"/>
<rect x="150.879" y="204.599" width="37.7197" height="37.7197" rx="2" fill="white"/>
<rect x="150.879" y="280.038" width="37.7197" height="35.9236" rx="2" fill="white"/>
<rect x="150.879" y="353.682" width="37.7197" height="37.7197" rx="2" fill="white"/>
<rect x="150.879" y="429.121" width="37.7197" height="37.7197" rx="2" fill="white"/>
<rect x="150.879" y="504.561" width="37.7197" height="37.7197" rx="2" fill="white"/>
<rect x="188.599" y="16" width="37.7197" height="37.7197" rx="2" fill="white"/>
<rect x="188.599" y="91.4395" width="37.7197" height="37.7197" rx="2" fill="white"/>
<rect x="188.599" y="166.879" width="37.7197" height="37.7197" rx="2" fill="white"/>
<rect x="188.599" y="242.318" width="37.7197" height="37.7197" rx="2" fill="white"/>
<rect x="188.599" y="315.962" width="37.7197" height="37.7197" rx="2" fill="white"/>
<rect x="188.599" y="391.401" width="37.7197" height="37.7197" rx="2" fill="white"/>
<rect x="188.599" y="466.841" width="37.7197" height="37.7197" rx="2" fill="white"/>
<rect x="188.599" y="542.28" width="37.7197" height="37.7197" rx="2" fill="white"/>
<rect x="226.318" y="53.7197" width="37.7197" height="37.7197" rx="2" fill="white"/>
<rect x="226.318" y="129.159" width="37.7197" height="37.7197" rx="2" fill="white"/>
<rect x="226.318" y="204.599" width="37.7197" height="37.7197" rx="2" fill="white"/>
<rect x="226.318" y="280.038" width="37.7197" height="35.9236" rx="2" fill="white"/>
<rect x="226.318" y="353.682" width="37.7197" height="37.7197" rx="2" fill="white"/>
<rect x="226.318" y="429.121" width="37.7197" height="37.7197" rx="2" fill="white"/>
<rect x="226.318" y="504.561" width="37.7197" height="37.7197" rx="2" fill="white"/>
<rect x="264.038" y="16" width="35.9236" height="37.7197" rx="2" fill="white"/>
<rect x="264.038" y="91.4395" width="35.9236" height="37.7197" rx="2" fill="white"/>
<rect x="264.038" y="166.879" width="35.9236" height="37.7197" rx="2" fill="white"/>
<rect x="264.038" y="242.318" width="35.9236" height="37.7197" rx="2" fill="white"/>
<rect x="264.038" y="315.962" width="35.9236" height="37.7197" rx="2" fill="white"/>
<rect x="264.038" y="391.401" width="35.9236" height="37.7197" rx="2" fill="white"/>
<rect x="264.038" y="466.841" width="35.9236" height="37.7197" rx="2" fill="white"/>
<rect x="264.038" y="542.28" width="35.9236" height="37.7197" rx="2" fill="white"/>
<rect x="299.962" y="53.7197" width="37.7197" height="37.7197" rx="2" fill="white"/>
<rect x="299.962" y="129.159" width="37.7197" height="37.7197" rx="2" fill="white"/>
<rect x="299.962" y="204.599" width="37.7197" height="37.7197" rx="2" fill="white"/>
<rect x="299.962" y="280.038" width="37.7197" height="35.9236" rx="2" fill="white"/>
<rect x="299.962" y="353.682" width="37.7197" height="37.7197" rx="2" fill="white"/>
<rect x="299.962" y="429.121" width="37.7197" height="37.7197" rx="2" fill="white"/>
<rect x="299.962" y="504.561" width="37.7197" height="37.7197" rx="2" fill="white"/>
<rect x="337.682" y="16" width="37.7197" height="37.7197" rx="2" fill="white"/>
<rect x="337.682" y="91.4395" width="37.7197" height="37.7197" rx="2" fill="white"/>
<rect x="337.682" y="166.879" width="37.7197" height="37.7197" rx="2" fill="white"/>
<rect x="337.682" y="242.318" width="37.7197" height="37.7197" rx="2" fill="white"/>
<rect x="337.682" y="315.962" width="37.7197" height="37.7197" rx="2" fill="white"/>
<rect x="337.682" y="391.401" width="37.7197" height="37.7197" rx="2" fill="white"/>
<rect x="337.682" y="466.841" width="37.7197" height="37.7197" rx="2" fill="white"/>
<rect x="337.682" y="542.28" width="37.7197" height="37.7197" rx="2" fill="white"/>
<rect x="375.401" y="53.7197" width="37.7197" height="37.7197" rx="2" fill="white"/>
<rect x="375.401" y="129.159" width="37.7197" height="37.7197" rx="2" fill="white"/>
<rect x="375.401" y="204.599" width="37.7197" height="37.7197" rx="2" fill="white"/>
<rect x="375.401" y="280.038" width="37.7197" height="35.9236" rx="2" fill="white"/>
<rect x="375.401" y="353.682" width="37.7197" height="37.7197" rx="2" fill="white"/>
<rect x="375.401" y="429.121" width="37.7197" height="37.7197" rx="2" fill="white"/>
<rect x="375.401" y="504.561" width="37.7197" height="37.7197" rx="2" fill="white"/>
<rect x="413.121" y="16" width="37.7197" height="37.7197" rx="2" fill="white"/>
<rect x="413.121" y="91.4395" width="37.7197" height="37.7197" rx="2" fill="white"/>
<rect x="413.121" y="166.879" width="37.7197" height="37.7197" rx="2" fill="white"/>
<rect x="413.121" y="242.318" width="37.7197" height="37.7197" rx="2" fill="white"/>
<rect x="413.121" y="315.962" width="37.7197" height="37.7197" rx="2" fill="white"/>
<rect x="413.121" y="391.401" width="37.7197" height="37.7197" rx="2" fill="white"/>
<rect x="413.121" y="466.841" width="37.7197" height="37.7197" rx="2" fill="white"/>
<rect x="413.121" y="542.28" width="37.7197" height="37.7197" rx="2" fill="white"/>
<rect x="450.841" y="53.7197" width="37.7197" height="37.7197" rx="2" fill="white"/>
<rect x="450.841" y="129.159" width="37.7197" height="37.7197" rx="2" fill="white"/>
<rect x="450.841" y="204.599" width="37.7197" height="37.7197" rx="2" fill="white"/>
<rect x="450.841" y="280.038" width="37.7197" height="35.9236" rx="2" fill="white"/>
<rect x="450.841" y="353.682" width="37.7197" height="37.7197" rx="2" fill="white"/>
<rect x="450.841" y="429.121" width="37.7197" height="37.7197" rx="2" fill="white"/>
<rect x="450.841" y="504.561" width="37.7197" height="37.7197" rx="2" fill="white"/>
<rect x="488.561" y="16" width="37.7197" height="37.7197" rx="2" fill="white"/>
<rect x="488.561" y="91.4395" width="37.7197" height="37.7197" rx="2" fill="white"/>
<rect x="488.561" y="166.879" width="37.7197" height="37.7197" rx="2" fill="white"/>
<rect x="488.561" y="242.318" width="37.7197" height="37.7197" rx="2" fill="white"/>
<rect x="488.561" y="315.962" width="37.7197" height="37.7197" rx="2" fill="white"/>
<rect x="488.561" y="391.401" width="37.7197" height="37.7197" rx="2" fill="white"/>
<rect x="488.561" y="466.841" width="37.7197" height="37.7197" rx="2" fill="white"/>
<rect x="488.561" y="542.28" width="37.7197" height="37.7197" rx="2" fill="white"/>
<rect x="526.28" y="53.7197" width="37.7197" height="37.7197" rx="2" fill="white"/>
<rect x="526.28" y="129.159" width="37.7197" height="37.7197" rx="2" fill="white"/>
<rect x="526.28" y="204.599" width="37.7197" height="37.7197" rx="2" fill="white"/>
<rect x="526.28" y="280.038" width="37.7197" height="35.9236" rx="2" fill="white"/>
<rect x="526.28" y="353.682" width="37.7197" height="37.7197" rx="2" fill="white"/>
<rect x="526.28" y="429.121" width="37.7197" height="37.7197" rx="2" fill="white"/>
<rect x="526.28" y="504.561" width="37.7197" height="37.7197" rx="2" fill="white"/>
<path d="M377 334.5C377 375.883 410.117 409 451.5 409C492.883 409 526 375.883 526 334.5C526 293.117 492.936 260 451.5 260C410.801 260 377 293.117 377 334.5ZM452.237 298.645C472.244 298.645 488.145 314.493 488.145 334.553C488.145 354.612 472.297 370.46 452.237 370.46C432.177 370.46 416.33 354.612 416.33 334.553C415.645 314.546 432.177 298.645 452.237 298.645Z" fill="#0070BB"/>
<path d="M51.7749 345.168C59.4747 352.944 72.8377 352.944 80.5375 345.168L117 309.047L153.462 345.168C161.162 352.944 174.525 352.944 182.225 345.168C189.925 337.392 189.925 323.897 182.225 316.121L146.458 280L182.225 243.879C189.925 236.103 189.925 222.608 182.225 214.832C174.525 207.056 161.162 207.056 153.462 214.832L117 250.953L80.5375 214.832C72.8377 207.056 59.5244 207.056 51.7749 214.832C44.075 222.658 44.075 236.103 51.7749 243.879L87.5419 280L51.7749 316.121C44.075 324.599 44.075 337.392 51.7749 345.168Z" fill="#E31838"/>
<path d="M319 5L259 100L306 204L242 308L306 404.5L259 485L302 567" stroke="#D3D3D3" stroke-width="16"/>
</svg>
