<svg width="49" height="59" viewBox="0 0 49 59" fill="none" xmlns="http://www.w3.org/2000/svg">
<path d="M29.4 0C20.4183 0 13.6073 2.11922 9.03315 6.45355C4.4639 10.7879 2.45 17.1062 2.45 24.585V26.8124C1.0486 28.1498 0 29.8707 0 31.9605C0 35.0582 2.1805 37.2561 4.9 38.3378C5.8065 41.2069 6.79385 44.221 7.889 46.7877C9.07725 49.5953 10.1528 51.8227 11.6375 53.401C13.2853 55.1681 15.2772 56.5769 17.4897 57.54C19.7022 58.5031 22.0883 59 24.5 59C26.9117 59 29.2978 58.5031 31.5103 57.54C33.7228 56.5769 35.7147 55.1681 37.3625 53.401C38.8472 51.8227 39.8443 49.5953 41.0375 46.7877C42.1302 44.221 43.1935 41.2069 44.1 38.3403C46.8195 37.2585 49 35.0606 49 31.9629C49 29.883 47.9465 28.1596 46.55 26.8148V24.585C46.55 17.6422 44.9746 12.7006 42.189 9.45046C39.8223 6.69695 36.6642 5.56604 33.5356 5.22185L31.6197 1.38659L30.9337 0H29.4ZM27.9447 5.07188L29.6303 8.45231C30.4461 10.0897 30.7647 11.255 30.7769 11.7541C30.7892 12.2531 30.8088 12.0491 30.7034 12.1425C30.4902 12.322 28.4249 12.8555 25.8769 12.9858C23.3289 13.1161 20.3301 13.0546 17.5322 14.1413C14.7392 15.2279 12.2818 18.1412 12.25 22.1314H17.15C17.1696 19.7073 17.7306 19.3582 19.2938 18.751C20.8568 18.1437 23.5518 17.9642 26.1856 17.829C28.8169 17.6938 31.534 17.8536 33.8419 15.9114C34.9934 14.9354 35.7284 13.2562 35.6794 11.609C35.6671 11.2452 35.5814 10.8961 35.525 10.5273C36.6492 11.0078 37.6459 11.7453 38.4356 12.6809C40.2118 14.751 41.65 18.3945 41.65 24.585V29.1184L42.875 29.8068C43.6198 30.242 44.1 31.0262 44.1 31.9605C44.1143 32.5776 43.892 33.1767 43.479 33.6341C43.066 34.0916 42.4937 34.3725 41.8803 34.419L40.1947 34.4927L39.7365 36.1079C38.8329 39.0526 37.7847 41.9506 36.5956 44.7914C35.4932 47.3875 34.2265 49.6002 33.8394 50.0132C28.6209 55.5448 20.3718 55.5448 15.1582 50.0132C14.7662 49.6002 13.5044 47.3875 12.3995 44.7889C11.2121 41.9481 10.1655 39.0501 9.26345 36.1055L8.80285 34.4902L7.11725 34.4165C6.50471 34.3695 5.93344 34.0886 5.52099 33.6318C5.10854 33.1749 4.8863 32.5768 4.9 31.9605C4.9 31.041 5.37285 30.2444 6.125 29.8093L7.35 29.1209V24.585C7.35 17.9544 9.0258 13.1874 12.4043 9.98641C15.5403 7.01163 20.6609 5.31527 27.9447 5.06942V5.07188ZM17.15 29.502C16.5002 29.502 15.8771 29.761 15.4176 30.222C14.9581 30.6831 14.7 31.3084 14.7 31.9605C14.7 32.6125 14.9581 33.2378 15.4176 33.6989C15.8771 34.1599 16.5002 34.419 17.15 34.419C17.7998 34.419 18.4229 34.1599 18.8824 33.6989C19.3419 33.2378 19.6 32.6125 19.6 31.9605C19.6 31.3084 19.3419 30.6831 18.8824 30.222C18.4229 29.761 17.7998 29.502 17.15 29.502ZM31.85 29.502C31.2002 29.502 30.5771 29.761 30.1176 30.222C29.6581 30.6831 29.4 31.3084 29.4 31.9605C29.4 32.6125 29.6581 33.2378 30.1176 33.6989C30.5771 34.1599 31.2002 34.419 31.85 34.419C32.4998 34.419 33.123 34.1599 33.5824 33.6989C34.0419 33.2378 34.3 32.6125 34.3 31.9605C34.3 31.3084 34.0419 30.6831 33.5824 30.222C33.123 29.761 32.4998 29.502 31.85 29.502Z" fill="#0070BB"/>
</svg>
