<svg width="16" height="18" viewBox="0 0 16 18" fill="none" xmlns="http://www.w3.org/2000/svg">
<path fill-rule="evenodd" clip-rule="evenodd" d="M6.53393 2.58597C6.78787 2.31057 7.10335 2.11141 7.44952 2.00798C7.79568 1.90455 8.16066 1.9004 8.50875 1.99591C8.85683 2.09143 9.17611 2.28336 9.43532 2.55291C9.69454 2.82246 9.88482 3.1604 9.98756 3.53367H6.01244C6.11106 3.1757 6.29028 2.85 6.53393 2.58597ZM4.19437 3.53367C4.33623 2.54912 4.79768 1.65197 5.49549 1.00402C6.1933 0.356082 7.08153 0 8 0C8.91847 0 9.8067 0.356082 10.5045 1.00402C11.2023 1.65197 11.6638 2.54912 11.8056 3.53367H15.1111C15.3469 3.53367 15.573 3.63528 15.7396 3.81615C15.9063 3.99701 16 4.24231 16 4.4981C16 4.75388 15.9063 4.99918 15.7396 5.18004C15.573 5.36091 15.3469 5.46252 15.1111 5.46252H13.9259V16.0712C13.9259 16.5827 13.7386 17.0733 13.4052 17.4351C13.0718 17.7968 12.6196 18 12.1481 18H3.85185C3.38036 18 2.92817 17.7968 2.59477 17.4351C2.26138 17.0733 2.07407 16.5827 2.07407 16.0712V5.46252H0.888889C0.772158 5.46252 0.656571 5.43757 0.548726 5.3891C0.440881 5.34064 0.342891 5.2696 0.26035 5.18004C0.177809 5.09049 0.112333 4.98417 0.0676626 4.86716C0.0229918 4.75015 0 4.62474 0 4.4981C0 4.37145 0.0229918 4.24604 0.0676626 4.12903C0.112333 4.01202 0.177809 3.9057 0.26035 3.81615C0.342891 3.72659 0.440881 3.65555 0.548726 3.60709C0.656571 3.55862 0.772158 3.53367 0.888889 3.53367H4.19437ZM5.62963 7.55338C6.03852 7.55338 6.37037 7.91343 6.37037 8.35707V13.5032C6.37037 13.7164 6.29233 13.9208 6.15341 14.0715C6.0145 14.2222 5.82609 14.3069 5.62963 14.3069C5.43317 14.3069 5.24476 14.2222 5.10585 14.0715C4.96693 13.9208 4.88889 13.7164 4.88889 13.5032V8.35707C4.88889 7.91343 5.22074 7.55338 5.62963 7.55338ZM11.1111 8.35707C11.1111 8.14392 11.0331 7.9395 10.8942 7.78878C10.7552 7.63806 10.5668 7.55338 10.3704 7.55338C10.1739 7.55338 9.9855 7.63806 9.84659 7.78878C9.70767 7.9395 9.62963 8.14392 9.62963 8.35707V13.5032C9.62963 13.7164 9.70767 13.9208 9.84659 14.0715C9.9855 14.2222 10.1739 14.3069 10.3704 14.3069C10.5668 14.3069 10.7552 14.2222 10.8942 14.0715C11.0331 13.9208 11.1111 13.7164 11.1111 13.5032V8.35707Z" fill="#CACACA"/>
</svg>
