<svg width="243" height="233" viewBox="0 0 243 233" fill="none" xmlns="http://www.w3.org/2000/svg">
<path fill-rule="evenodd" clip-rule="evenodd" d="M60.75 0H137.543L94.7488 178.73C84.0355 174.468 74.4024 167.676 66.7098 158.836C55.6529 146.12 49.2729 129.964 48.6475 113.066L48.598 110.307V108.211C46.8701 108.834 45.1052 109.318 43.318 109.664C39.5879 110.376 35.7564 110.515 31.962 110.04C26.3507 109.348 20.9767 107.341 16.2677 104.187C11.5562 101.032 7.63824 96.8104 4.82025 91.8666C2.00473 86.9227 0.365845 81.3856 0.0370789 75.7002L0 73.5348L0.0617981 71.3793C0.390564 65.6938 2.02698 60.1567 4.8425 55.2129C5.6434 53.8088 6.53329 52.4641 7.50476 51.1787C9.94949 47.9553 12.9133 45.1472 16.2826 42.8928C17.4691 42.1018 18.6976 41.38 19.9633 40.7274C23.7156 38.8092 27.777 37.5535 31.9743 37.0294C37.5856 36.3274 43.2809 36.9503 48.6104 38.8488L48.598 12.2607C48.598 11.4302 48.6821 10.6095 48.8452 9.79871C48.9367 9.34387 49.0553 8.89893 49.1962 8.46387C49.7821 6.64453 50.7906 4.97351 52.1576 3.58923C54.4367 1.29529 57.5266 0 60.75 0ZM31.7593 62.2233C30.3132 62.8363 28.9808 63.7262 27.8512 64.8732C25.5721 67.1671 24.2916 70.2916 24.2916 73.5348C24.2916 76.7878 25.5721 79.9124 27.8512 82.2063C30.1303 84.5002 33.2227 85.7955 36.446 85.7955C38.4236 85.7955 40.3517 85.311 42.0746 84.4113C43.1573 83.8378 44.1584 83.0962 45.0385 82.2063C47.3176 79.9124 48.598 76.7878 48.598 73.5348C48.598 72.0417 48.3286 70.5784 47.8144 69.204C47.2113 67.5923 46.2719 66.1091 45.0385 64.8732C43.6097 63.4296 41.862 62.3914 39.9636 61.808C38.8339 61.4619 37.6499 61.2839 36.446 61.2839C34.822 61.2839 33.2301 61.6102 31.7593 62.2233Z" fill="#0070BB"/>
<path fill-rule="evenodd" clip-rule="evenodd" d="M109.36 182.833C107.699 182.547 106.053 182.21 104.424 181.815L147.955 0H182.275C183.429 0 184.569 0.168091 185.661 0.484497C187.382 0.98877 188.986 1.87866 190.348 3.09485C192.573 5.09216 193.994 7.84094 194.343 10.827L194.427 12.2607V38.8488C199.924 36.9009 205.807 36.3076 211.579 37.1184C217.354 37.9292 222.849 40.1243 227.607 43.5256C229.708 45.0286 231.639 46.7391 233.372 48.6376C235.56 51.0304 237.428 53.7198 238.924 56.6367C241.603 61.8574 243 67.6516 243 73.5348C243 79.4081 241.603 85.2023 238.924 90.423C237.95 92.3214 236.818 94.1309 235.542 95.8217C233.308 98.7781 230.635 101.379 227.607 103.544C224.663 105.65 221.437 107.291 218.039 108.428C215.942 109.13 213.782 109.645 211.579 109.951C205.807 110.762 199.924 110.169 194.427 108.211V110.307C194.429 127.69 188.328 144.509 177.205 157.788C166.084 171.057 150.656 179.936 133.664 182.833V208.363H170.123C170.612 208.363 171.099 208.393 171.579 208.452C171.925 208.492 172.268 208.551 172.607 208.62C174.785 209.085 176.809 210.143 178.451 211.705C179.798 212.991 180.824 214.553 181.469 216.264C181.904 217.421 182.168 218.647 182.24 219.902C182.354 221.83 182.01 223.749 181.261 225.489C180.801 226.567 180.186 227.575 179.427 228.485C177.44 230.878 174.619 232.42 171.544 232.786L170.123 232.875H92.1953L98.0637 208.363H109.36V182.833ZM206.579 61.2839C203.358 61.2839 200.265 62.5693 197.986 64.8732C196.698 66.1685 195.729 67.7307 195.129 69.4314C194.669 70.7366 194.427 72.1208 194.427 73.5348C194.427 76.7878 195.707 79.9124 197.986 82.2063C199.257 83.4818 200.782 84.4508 202.441 85.054C203.756 85.5385 205.155 85.7955 206.579 85.7955C207.182 85.7955 207.783 85.7461 208.373 85.6571C208.806 85.5879 209.234 85.4989 209.656 85.3901C211.728 84.8463 213.636 83.7587 215.174 82.2063C217.453 79.9124 218.733 76.7878 218.733 73.5348C218.733 70.2916 217.453 67.1671 215.174 64.8732C214.022 63.7064 212.662 62.8066 211.184 62.1936C209.735 61.6003 208.173 61.2839 206.579 61.2839Z" fill="#0070BB"/>
<path d="M87.6519 208.363H72.902L71.4806 208.452C68.4055 208.818 65.5851 210.361 63.5977 212.754C61.6078 215.146 60.6042 218.221 60.7846 221.336C60.9651 224.451 62.3221 227.387 64.5741 229.533C65.8842 230.779 67.439 231.708 69.1199 232.262C70.3312 232.667 71.6067 232.875 72.902 232.875H81.7836L87.6519 208.363Z" fill="#0070BB"/>
<path fill-rule="evenodd" clip-rule="evenodd" d="M137.543 0H60.75C57.5269 0 54.4359 1.29131 52.1569 3.58987C49.8779 5.88842 48.5975 9.00593 48.5975 12.2566L48.6097 38.8534C43.2797 36.9526 37.5845 36.3281 31.974 37.0291C26.3636 37.7301 20.9916 39.7375 16.2827 42.8926C11.5737 46.0477 7.65681 50.2641 4.84145 55.2086C2.02608 60.1531 0.389414 65.6902 0.0607635 71.3823L0 73.5395L0.0364575 75.6966C0.366329 81.3892 2.00441 86.9264 4.82124 91.8706C7.63806 96.8148 11.5564 101.03 16.2667 104.184C20.9769 107.338 26.35 109.344 31.9611 110.044C37.5723 110.743 43.2678 110.116 48.5975 108.213V110.309L48.6462 113.067C49.2723 129.963 55.6517 146.124 66.71 158.831C74.4033 167.672 84.0343 174.464 94.7489 178.728L137.543 0ZM87.6535 208.362L81.7841 232.875H72.9024C69.805 232.872 66.8258 231.675 64.5735 229.531C62.3212 227.386 60.9659 224.455 60.7843 221.337C60.6028 218.218 61.6088 215.147 63.5969 212.752C65.5849 210.356 68.4048 208.817 71.4806 208.448L72.9024 208.362H87.6535ZM27.8521 64.8728C30.1311 62.5742 33.2221 61.2829 36.4451 61.2829C39.6681 61.2829 42.7592 62.5742 45.0382 64.8728C47.3172 67.1713 48.5975 70.2888 48.5975 73.5395C48.5975 76.7901 47.3172 79.9076 45.0382 82.2062C42.7592 84.5047 39.6681 85.7961 36.4451 85.7961C33.2221 85.7961 30.1311 84.5047 27.8521 82.2062C25.573 79.9076 24.2927 76.7901 24.2927 73.5395C24.2927 70.2888 25.573 67.1713 27.8521 64.8728Z" fill="#E31838"/>
</svg>
