<svg width="16" height="15" viewBox="0 0 16 15" fill="none" xmlns="http://www.w3.org/2000/svg">
<path d="M12.0002 14.575C12.2835 14.575 12.5208 14.479 12.7122 14.287C12.9035 14.095 12.9995 13.8577 13.0002 13.575C13.0008 13.2923 12.9048 13.055 12.7122 12.863C12.5195 12.671 12.2822 12.575 12.0002 12.575H5.90016C4.85016 12.575 3.93749 12.2417 3.16216 11.575C2.38682 10.9083 1.99949 10.075 2.00016 9.075C2.00082 8.075 2.38816 7.24167 3.16216 6.575C3.93616 5.90833 4.84882 5.575 5.90016 5.575H12.2002L10.3002 7.475C10.1168 7.65833 10.0252 7.89167 10.0252 8.175C10.0252 8.45833 10.1168 8.69167 10.3002 8.875C10.4835 9.05833 10.7168 9.15 11.0002 9.15C11.2835 9.15 11.5168 9.05833 11.7002 8.875L15.3002 5.275C15.4002 5.175 15.4712 5.06667 15.5132 4.95C15.5552 4.83333 15.5755 4.70833 15.5742 4.575C15.5728 4.44167 15.5518 4.31667 15.5112 4.2C15.4705 4.08333 15.4002 3.975 15.3002 3.875L11.7002 0.275C11.5168 0.0916663 11.2835 0 11.0002 0C10.7168 0 10.4835 0.0916663 10.3002 0.275C10.1168 0.458333 10.0252 0.691667 10.0252 0.975C10.0252 1.25833 10.1168 1.49167 10.3002 1.675L12.2002 3.575H5.90016C4.28349 3.575 2.89582 4.1 1.73716 5.15C0.57849 6.2 -0.000509262 7.50833 0.000157356 9.075C0.000823975 10.6417 0.579823 11.95 1.73716 13C2.89449 14.05 4.28216 14.575 5.90016 14.575H12.0002Z" fill="#CACACA"/>
</svg>
