<svg width="50" height="23" viewBox="0 0 50 23" fill="none" xmlns="http://www.w3.org/2000/svg">
<path fill-rule="evenodd" clip-rule="evenodd" d="M17 0H33V23H17V0ZM25.32 11.9998C25.298 11.9998 25.2762 11.999 25.2547 11.9974C25.2351 11.9959 25.2157 11.9938 25.1965 11.9911C25.1781 11.9885 25.1599 11.9853 25.1419 11.9814C25.0791 11.9681 25.0185 11.9476 24.96 11.9197C24.8533 11.8611 24.8 11.7758 24.8 11.6638V7.39972L24.544 7.65576C24.5275 7.66681 24.5109 7.67712 24.4943 7.68671C24.4789 7.69568 24.4634 7.70404 24.448 7.71173C24.416 7.72241 24.3867 7.72772 24.36 7.72772C24.2587 7.72772 24.176 7.68506 24.112 7.59973C24.0787 7.54828 24.0548 7.4942 24.0404 7.43756C24.0295 7.39447 24.024 7.34985 24.024 7.30377C24.024 7.29401 24.0243 7.28424 24.025 7.27454C24.0255 7.26697 24.0261 7.25946 24.027 7.25201C24.0284 7.23962 24.0305 7.22729 24.033 7.21503C24.0376 7.19287 24.0439 7.17102 24.0521 7.14941C24.0578 7.13403 24.0645 7.11884 24.072 7.10376C24.104 7.03442 24.152 6.97839 24.216 6.93573L25.16 6.21576C25.192 6.18909 25.224 6.17041 25.256 6.15973C25.2933 6.14374 25.336 6.13574 25.384 6.13574C25.4907 6.13574 25.592 6.16772 25.688 6.23175C25.7894 6.29041 25.84 6.37305 25.84 6.47974V11.6638C25.84 11.7758 25.7867 11.8611 25.68 11.9197C25.5734 11.9731 25.4534 11.9998 25.32 11.9998Z" fill="white"/>
<path fill-rule="evenodd" clip-rule="evenodd" d="M0 9H16V23H0V9ZM6.664 18.9998C6.57336 18.9998 6.47467 18.9704 6.36798 18.9117C6.26135 18.8477 6.20801 18.7651 6.20801 18.6638V17.8878C6.20801 17.6797 6.26935 17.485 6.39203 17.3038C6.51465 17.1171 6.67468 16.9411 6.87201 16.7758C7.06934 16.6104 7.27734 16.4504 7.49603 16.2957C7.71466 16.1411 7.91998 15.9838 8.112 15.8237C8.30933 15.6638 8.46936 15.5011 8.59198 15.3358C8.72003 15.1704 8.784 14.9944 8.784 14.8077C8.784 14.7582 8.77881 14.7091 8.76837 14.6606C8.75519 14.5995 8.7337 14.5392 8.70398 14.4797C8.65601 14.3677 8.57599 14.2771 8.46399 14.2078C8.35736 14.1331 8.216 14.0958 8.03998 14.0958C7.84802 14.0958 7.67999 14.1517 7.53601 14.2637C7.39734 14.3704 7.328 14.5491 7.328 14.7997C7.328 14.8958 7.28003 14.9838 7.18402 15.0637C7.08801 15.1437 6.95465 15.1837 6.784 15.1837C6.64532 15.1837 6.53333 15.1437 6.448 15.0637C6.36267 14.9838 6.32001 14.8371 6.32001 14.6237C6.32001 14.3198 6.40002 14.0584 6.56 13.8397C6.72003 13.6157 6.93066 13.4451 7.19202 13.3278C7.45868 13.2104 7.74133 13.1517 8.03998 13.1517C8.34937 13.1517 8.64001 13.2184 8.91199 13.3517C9.18402 13.4797 9.40265 13.6638 9.56799 13.9037C9.73865 14.1437 9.82404 14.4344 9.82404 14.7758C9.82404 15.0584 9.7627 15.3144 9.64001 15.5438C9.51733 15.7731 9.35999 15.9811 9.16803 16.1677C8.97601 16.3544 8.77069 16.5251 8.552 16.6797C8.33868 16.8291 8.13599 16.9704 7.94403 17.1038C7.75201 17.2318 7.59467 17.3597 7.47198 17.4877C7.34937 17.6157 7.28802 17.7491 7.28802 17.8878V18.0878H9.51202C9.60266 18.0878 9.67999 18.1331 9.74402 18.2238C9.80798 18.3091 9.84003 18.4131 9.84003 18.5358C9.84003 18.6584 9.80798 18.7678 9.74402 18.8638C9.67999 18.9544 9.60266 18.9998 9.51202 18.9998H6.664Z" fill="white"/>
<path fill-rule="evenodd" clip-rule="evenodd" d="M50 14H34V23H50V14ZM41.152 21.9117C41.3867 22.0024 41.6667 22.0477 41.992 22.0477C42.344 22.0477 42.664 21.9891 42.952 21.8718C43.2454 21.7544 43.4774 21.5677 43.648 21.3118C43.824 21.0504 43.912 20.7037 43.912 20.2717V20.1198C43.912 19.7891 43.8347 19.5278 43.68 19.3358C43.5253 19.1437 43.3307 19.0024 43.096 18.9117C43.2933 18.821 43.448 18.6558 43.56 18.4158C43.672 18.1757 43.728 17.8984 43.728 17.5837C43.728 17.2264 43.6533 16.9437 43.504 16.7357C43.3547 16.5278 43.152 16.3784 42.896 16.2877C42.6453 16.1971 42.3574 16.1517 42.032 16.1517C41.696 16.1517 41.416 16.1971 41.192 16.2877C40.968 16.373 40.7894 16.4877 40.656 16.6317C40.5227 16.7758 40.4267 16.9277 40.368 17.0878C40.3093 17.2477 40.28 17.3997 40.28 17.5438C40.28 17.6558 40.2933 17.7464 40.32 17.8157C40.3467 17.8798 40.3973 17.925 40.472 17.9517C40.5467 17.9784 40.664 17.9918 40.824 17.9918C41.016 17.9918 41.144 17.9544 41.208 17.8798C41.2773 17.8051 41.312 17.709 41.312 17.5917C41.312 17.5064 41.3227 17.4318 41.344 17.3677C41.3707 17.3038 41.4133 17.2477 41.472 17.1998C41.5307 17.1517 41.6053 17.1171 41.696 17.0958C41.7867 17.0691 41.896 17.0557 42.024 17.0557C42.2427 17.0557 42.4133 17.1064 42.536 17.2078C42.664 17.3091 42.728 17.4931 42.728 17.7598C42.728 17.9891 42.6934 18.1597 42.624 18.2717C42.56 18.3837 42.472 18.4584 42.36 18.4957C42.2714 18.5211 42.1762 18.5364 42.0743 18.5417C42.0599 18.5424 42.0455 18.543 42.0309 18.5433L42.0078 18.5437L41.992 18.5438C41.88 18.5438 41.8 18.5864 41.752 18.6718C41.704 18.7571 41.68 18.8504 41.68 18.9517C41.68 18.9922 41.6838 19.0316 41.6915 19.0695C41.703 19.1265 41.7232 19.1805 41.752 19.2318C41.8 19.3171 41.8827 19.3597 42 19.3597C42.256 19.3597 42.464 19.4131 42.624 19.5197C42.7894 19.6264 42.872 19.8264 42.872 20.1198V20.2717C42.872 20.5811 42.8027 20.8024 42.664 20.9357C42.5307 21.0691 42.3147 21.1357 42.016 21.1357C41.888 21.1357 41.7707 21.1224 41.664 21.0958C41.6151 21.0829 41.5693 21.0675 41.5266 21.0497C41.4808 21.0306 41.4387 21.0086 41.4 20.9838C41.3307 20.9304 41.2773 20.8691 41.24 20.7997C41.2027 20.7251 41.184 20.6398 41.184 20.5438C41.184 20.4158 41.1467 20.3251 41.072 20.2717C41.0027 20.2131 40.8613 20.1837 40.648 20.1837C40.4667 20.1837 40.3387 20.2131 40.264 20.2717C40.1947 20.3251 40.16 20.4318 40.16 20.5917C40.16 20.7518 40.192 20.9171 40.256 21.0878C40.3253 21.2584 40.4347 21.4158 40.584 21.5598C40.7333 21.7037 40.9227 21.8211 41.152 21.9117Z" fill="white"/>
</svg>
