<svg width="154" height="109" viewBox="0 0 154 109" fill="none" xmlns="http://www.w3.org/2000/svg">
<path id="Vector" d="M92.4 15.5V69.75H15.4V15.5H92.4ZM15.4 0C6.90594 0 0 6.95078 0 15.5V69.75C0 78.2992 6.90594 85.25 15.4 85.25H43.6253L41.0506 93H23.1C18.8409 93 15.4 96.4633 15.4 100.75C15.4 105.037 18.8409 108.5 23.1 108.5H84.7C88.9591 108.5 92.4 105.037 92.4 100.75C92.4 96.4633 88.9591 93 84.7 93H66.7253L64.1506 85.25H92.4C100.894 85.25 107.8 78.2992 107.8 69.75V15.5C107.8 6.95078 100.894 0 92.4 0H15.4ZM127.05 0C120.673 0 115.5 5.20703 115.5 11.625V96.875C115.5 103.293 120.673 108.5 127.05 108.5H142.45C148.827 108.5 154 103.293 154 96.875V11.625C154 5.20703 148.827 0 142.45 0H127.05ZM130.9 15.5H138.6C140.717 15.5 142.45 17.2437 142.45 19.375C142.45 21.5063 140.717 23.25 138.6 23.25H130.9C128.783 23.25 127.05 21.5063 127.05 19.375C127.05 17.2437 128.783 15.5 130.9 15.5ZM127.05 34.875C127.05 32.7438 128.783 31 130.9 31H138.6C140.717 31 142.45 32.7438 142.45 34.875C142.45 37.0062 140.717 38.75 138.6 38.75H130.9C128.783 38.75 127.05 37.0062 127.05 34.875ZM134.75 73.625C136.792 73.625 138.751 74.4415 140.195 75.8949C141.639 77.3483 142.45 79.3196 142.45 81.375C142.45 83.4304 141.639 85.4017 140.195 86.8551C138.751 88.3085 136.792 89.125 134.75 89.125C132.708 89.125 130.749 88.3085 129.305 86.8551C127.861 85.4017 127.05 83.4304 127.05 81.375C127.05 79.3196 127.861 77.3483 129.305 75.8949C130.749 74.4415 132.708 73.625 134.75 73.625Z" fill="#BEBEBE"/>
</svg>
