<svg width="25" height="26" viewBox="0 0 25 26" fill="none" xmlns="http://www.w3.org/2000/svg">
<path fill-rule="evenodd" clip-rule="evenodd" d="M22.5819 6.83244L9.2925 20.1219C10.0579 20.5856 10.9078 20.9052 11.801 21.0574V23.5789H8.20025L8.05983 23.5874C7.75605 23.6239 7.47753 23.7759 7.28119 24.0125C7.08484 24.2491 6.98548 24.5524 7.00341 24.8604C7.02133 25.1684 7.1552 25.4579 7.37765 25.6697C7.60009 25.8815 7.89434 25.9997 8.20025 26H17.8022L17.9426 25.9915C18.2464 25.9551 18.5249 25.803 18.7213 25.5664C18.9176 25.3298 19.017 25.0265 18.999 24.7185C18.9811 24.4105 18.8472 24.121 18.6248 23.9092C18.4024 23.6974 18.1081 23.5793 17.8022 23.5789H14.2015V21.0574C15.8797 20.7713 17.4032 19.895 18.5018 18.5838C19.6003 17.2726 20.2029 15.6114 20.2027 13.8947V13.6877C20.7457 13.8807 21.3266 13.9395 21.8968 13.8593C22.467 13.7791 23.0098 13.5621 23.4797 13.2266C23.9496 12.8911 24.3329 12.4469 24.5974 11.9311C24.8619 11.4154 25 10.8432 25 10.2626C25 9.6819 24.8619 9.10971 24.5974 8.59398C24.3329 8.07825 23.9496 7.634 23.4797 7.29851C23.2027 7.10071 22.9003 6.94411 22.5819 6.83244ZM21.4029 9.05263C21.0846 9.05263 20.7793 9.18017 20.5542 9.40719C20.3291 9.6342 20.2027 9.94211 20.2027 10.2632C20.2027 10.5842 20.3291 10.8921 20.5542 11.1191C20.7793 11.3461 21.0846 11.4737 21.4029 11.4737C21.7212 11.4737 22.0265 11.3461 22.2516 11.1191C22.4767 10.8921 22.6032 10.5842 22.6032 10.2632C22.6032 9.94211 22.4767 9.6342 22.2516 9.40719C22.0265 9.18017 21.7212 9.05263 21.4029 9.05263Z" fill="#0070BB"/>
<path fill-rule="evenodd" clip-rule="evenodd" d="M2.29297 24.293L0.939453 22.9395L6.61872 17.2602C6.12598 16.3093 5.84484 15.2536 5.80457 14.1671L5.79977 13.8947V13.6877C5.27337 13.8757 4.71085 13.9376 4.15666 13.8685C3.60247 13.7994 3.0718 13.6013 2.60659 13.2898C2.14138 12.9783 1.75438 12.562 1.47617 12.0736C1.19797 11.5853 1.03618 11.0384 1.0036 10.4762L1 10.2632L1.006 10.0501C1.03846 9.48792 1.20011 8.94104 1.47817 8.4527C1.75623 7.96436 2.14309 7.54792 2.60817 7.23631C3.07325 6.92469 3.60381 6.72643 4.15794 6.6572C4.71206 6.58796 5.27455 6.64964 5.80097 6.83737L5.79977 4.21053C5.79977 3.88947 5.92622 3.58157 6.15131 3.35455C6.3764 3.12754 6.68169 3 7.00001 3H19.0024C19.2964 3.00004 19.5802 3.10889 19.7998 3.30592C19.9403 3.43193 20.0484 3.5884 20.117 3.76187L22.9395 0.939453L24.293 2.29297L2.29297 24.293ZM4.59953 9.05263C4.2812 9.05263 3.97592 9.18017 3.75083 9.40719C3.52574 9.6342 3.39928 9.94211 3.39928 10.2632C3.39928 10.5842 3.52574 10.8921 3.75083 11.1191C3.97592 11.3461 4.2812 11.4737 4.59953 11.4737C4.91785 11.4737 5.22314 11.3461 5.44823 11.1191C5.67332 10.8921 5.79977 10.5842 5.79977 10.2632C5.79977 9.94211 5.67332 9.6342 5.44823 9.40719C5.22314 9.18017 4.91785 9.05263 4.59953 9.05263Z" fill="#0070BB"/>
</svg>
