<svg width="105" height="105" viewBox="0 0 105 105" fill="none" xmlns="http://www.w3.org/2000/svg">
<path id="Vector" d="M75.39 63C75.81 59.535 76.125 56.07 76.125 52.5C76.125 48.93 75.81 45.465 75.39 42H93.135C93.975 45.36 94.5 48.8775 94.5 52.5C94.5 56.1225 93.975 59.64 93.135 63M66.0975 92.19C69.2475 86.3625 71.6625 80.0625 73.3425 73.5H88.83C83.7436 82.2584 75.6741 88.893 66.0975 92.19ZM64.785 63H40.215C39.69 59.535 39.375 56.07 39.375 52.5C39.375 48.93 39.69 45.4125 40.215 42H64.785C65.2575 45.4125 65.625 48.93 65.625 52.5C65.625 56.07 65.2575 59.535 64.785 63ZM52.5 94.29C48.1425 87.99 44.625 81.0075 42.4725 73.5H62.5275C60.375 81.0075 56.8575 87.99 52.5 94.29ZM31.5 31.5H16.17C21.2029 22.7169 29.267 16.0715 38.85 12.81C35.7 18.6375 33.3375 24.9375 31.5 31.5ZM16.17 73.5H31.5C33.3375 80.0625 35.7 86.3625 38.85 92.19C29.2859 88.8946 21.2325 82.258 16.17 73.5ZM11.865 63C11.025 59.64 10.5 56.1225 10.5 52.5C10.5 48.8775 11.025 45.36 11.865 42H29.61C29.19 45.465 28.875 48.93 28.875 52.5C28.875 56.07 29.19 59.535 29.61 63M52.5 10.6575C56.8575 16.9575 60.375 23.9925 62.5275 31.5H42.4725C44.625 23.9925 48.1425 16.9575 52.5 10.6575ZM88.83 31.5H73.3425C71.6969 24.9985 69.2639 18.7221 66.0975 12.81C75.7575 16.1175 83.79 22.785 88.83 31.5ZM52.5 0C23.4675 0 0 23.625 0 52.5C0 66.4239 5.53123 79.7774 15.3769 89.6231C20.252 94.4982 26.0395 98.3653 32.4091 101.004C38.7787 103.642 45.6056 105 52.5 105C66.4239 105 79.7774 99.4688 89.6231 89.6231C99.4688 79.7774 105 66.4239 105 52.5C105 45.6056 103.642 38.7787 101.004 32.4091C98.3653 26.0395 94.4982 20.252 89.6231 15.3769C84.748 10.5018 78.9605 6.6347 72.5909 3.99632C66.2213 1.35795 59.3944 0 52.5 0Z" fill="#BEBEBE"/>
</svg>
