<svg width="16" height="13" viewBox="0 0 16 13" fill="none" xmlns="http://www.w3.org/2000/svg">
<path fill-rule="evenodd" clip-rule="evenodd" d="M8 0C5.7704 0 3.7896 1.02131 2.3792 2.28556C1.672 2.92013 1.088 3.63187 0.6768 4.342C0.272 5.03831 0 5.79313 0 6.5C0 7.20687 0.272 7.96169 0.6768 8.658C1.088 9.36731 1.6712 10.0799 2.3792 10.7144C3.7896 11.9787 5.7712 13 8 13C10.2296 13 12.2104 11.9787 13.6208 10.7144C14.3288 10.0799 14.912 9.36731 15.3232 8.658C15.728 7.96169 16 7.20687 16 6.5C16 5.79313 15.728 5.03831 15.3232 4.342C14.912 3.63269 14.3288 2.92013 13.6208 2.28556C12.2104 1.02131 10.2288 0 8 0ZM9.6 6.5C9.888 6.5 10.1576 6.42281 10.3912 6.28794C10.4338 6.78616 10.3245 7.28565 10.0782 7.71864C9.83176 8.15163 9.4602 8.49718 9.01387 8.7084C8.56753 8.91962 8.06803 8.98629 7.58311 8.89938C7.0982 8.81247 6.65134 8.57617 6.30316 8.22254C5.95497 7.86892 5.72231 7.41508 5.63673 6.92259C5.55116 6.4301 5.61681 5.92279 5.82478 5.46948C6.03275 5.01617 6.37298 4.6388 6.79931 4.38857C7.22564 4.13833 7.71744 4.02733 8.208 4.07063C8.06929 4.31792 7.99696 4.59787 7.99825 4.88247C7.99953 5.16708 8.0744 5.44634 8.21534 5.69233C8.35629 5.93832 8.55838 6.14239 8.80138 6.28413C9.04438 6.42588 9.31977 6.50032 9.6 6.5Z" fill="white"/>
</svg>
