<svg width="24" height="23" viewBox="0 0 24 23" fill="none" xmlns="http://www.w3.org/2000/svg">
<path d="M18.0024 0C18.2964 3.91128e-05 18.5802 0.108894 18.7998 0.305919C19.0195 0.502943 19.1599 0.774433 19.1943 1.06889L19.2027 1.21053V3.83737C19.7457 3.64441 20.3266 3.58558 20.8968 3.66581C21.467 3.74605 22.0098 3.96301 22.4797 4.29851C22.9496 4.634 23.3329 5.07825 23.5974 5.59398C23.8619 6.10971 24 6.6819 24 7.26255C24 7.84321 23.8619 8.41539 23.5974 8.93113C23.3329 9.44686 22.9496 9.8911 22.4797 10.2266C22.0098 10.5621 21.467 10.7791 20.8968 10.8593C20.3266 10.9395 19.7457 10.8807 19.2027 10.6877V10.8947C19.2029 12.6114 18.6003 14.2726 17.5018 15.5838C16.4032 16.895 14.8797 17.7713 13.2015 18.0574V20.5789H16.8022C17.1081 20.5793 17.4024 20.6974 17.6248 20.9092C17.8472 21.121 17.9811 21.4105 17.999 21.7185C18.017 22.0265 17.9176 22.3298 17.7213 22.5664C17.5249 22.803 17.2464 22.9551 16.9426 22.9915L16.8022 23H7.20025C6.89434 22.9997 6.60009 22.8815 6.37765 22.6697C6.1552 22.4579 6.02133 22.1684 6.00341 21.8604C5.98548 21.5524 6.08484 21.2491 6.28119 21.0125C6.47753 20.7759 6.75605 20.6239 7.05983 20.5874L7.20025 20.5789H10.801V18.0574C9.16845 17.7792 7.68085 16.9421 6.58866 15.687C5.49647 14.432 4.86641 12.8358 4.80457 11.1671L4.79977 10.8947V10.6877C4.27337 10.8757 3.71085 10.9376 3.15666 10.8685C2.60247 10.7994 2.0718 10.6013 1.60659 10.2898C1.14138 9.97832 0.754379 9.56195 0.476173 9.07364C0.197967 8.58532 0.0361807 8.03844 0.00360075 7.47621L0 7.26316L0.00600135 7.05011C0.0384607 6.48792 0.200108 5.94104 0.478169 5.4527C0.75623 4.96436 1.14309 4.54792 1.60817 4.23631C2.07325 3.92469 2.60381 3.72643 3.15794 3.6572C3.71206 3.58796 4.27455 3.64964 4.80097 3.83737L4.79977 1.21053C4.79977 0.889475 4.92622 0.581573 5.15131 0.354555C5.3764 0.127537 5.68169 0 6.00001 0H18.0024ZM3.59953 6.05263C3.2812 6.05263 2.97592 6.18017 2.75083 6.40719C2.52574 6.6342 2.39928 6.94211 2.39928 7.26316C2.39928 7.58421 2.52574 7.89211 2.75083 8.11913C2.97592 8.34615 3.2812 8.47368 3.59953 8.47368C3.91785 8.47368 4.22314 8.34615 4.44823 8.11913C4.67332 7.89211 4.79977 7.58421 4.79977 7.26316C4.79977 6.94211 4.67332 6.6342 4.44823 6.40719C4.22314 6.18017 3.91785 6.05263 3.59953 6.05263ZM20.4029 6.05263C20.0846 6.05263 19.7793 6.18017 19.5542 6.40719C19.3291 6.6342 19.2027 6.94211 19.2027 7.26316C19.2027 7.58421 19.3291 7.89211 19.5542 8.11913C19.7793 8.34615 20.0846 8.47368 20.4029 8.47368C20.7212 8.47368 21.0265 8.34615 21.2516 8.11913C21.4767 7.89211 21.6032 7.58421 21.6032 7.26316C21.6032 6.94211 21.4767 6.6342 21.2516 6.40719C21.0265 6.18017 20.7212 6.05263 20.4029 6.05263Z" fill="#0070BB"/>
</svg>
